<svg width="386" height="104" viewBox="0 0 386 104" fill="none" xmlns="http://www.w3.org/2000/svg">
<path d="M125.21 86.6693C124.32 86.6693 123.5 86.1193 123.18 85.2593L121.15 79.8093C120.92 79.1893 120.98 78.5093 121.32 77.9393C121.66 77.3693 122.23 76.9893 122.88 76.8993C128.82 76.0693 134.07 74.6793 138.47 72.7693C143.27 70.6893 147.45 68.0193 150.89 64.8293C154.33 61.6493 157.26 57.8993 159.6 53.6793C161.7 49.8893 163.57 45.6993 165.15 41.2093C165.37 40.5893 165.86 40.0993 166.48 39.8793C166.71 39.7993 166.96 39.7593 167.2 39.7593C167.6 39.7593 168 39.8693 168.35 40.0893L173.13 43.0593C173.98 43.5893 174.36 44.6393 174.04 45.5893C172.35 50.6193 170.19 55.3893 167.62 59.7693C164.88 64.4293 161.47 68.6293 157.5 72.2593C153.52 75.8893 148.77 78.9893 143.39 81.4693C138.23 83.8493 132.24 85.5793 125.56 86.6293C125.45 86.6493 125.33 86.6593 125.22 86.6593L125.21 86.6693ZM132.14 61.6593C131.68 61.6593 131.24 61.5193 130.87 61.2493C129 59.8893 126.83 58.5693 124.44 57.3193C122.11 56.1093 119.77 55.0593 117.5 54.1993C116.9 53.9693 116.43 53.4893 116.21 52.8793C116 52.2693 116.07 51.5993 116.4 51.0493L118.93 46.8393C119.33 46.1693 120.04 45.7893 120.79 45.7893C121 45.7893 121.21 45.8193 121.41 45.8793C124 46.6593 126.69 47.7293 129.4 49.0593C131.99 50.3293 134.33 51.7293 136.37 53.1993C137.31 53.8793 137.55 55.1793 136.91 56.1493L133.94 60.6793C133.61 61.1793 133.1 61.5193 132.52 61.6193C132.39 61.6393 132.26 61.6593 132.13 61.6593H132.14ZM141.01 46.2493C140.57 46.2493 140.13 46.1193 139.74 45.8393C138.92 45.2493 138.04 44.6593 137.1 44.0893C135.79 43.2993 134.41 42.5093 133.01 41.7593C131.61 41.0093 130.16 40.3193 128.71 39.7093C127.77 39.3193 126.82 38.9493 125.91 38.6093C125.29 38.3793 124.81 37.8893 124.6 37.2593C124.39 36.6393 124.48 35.9493 124.83 35.3893L127.32 31.5193C127.73 30.8893 128.42 30.5193 129.15 30.5193C129.36 30.5193 129.57 30.5493 129.78 30.6093C132.8 31.5193 135.67 32.6493 138.32 33.9493C140.82 35.1793 143.18 36.5993 145.34 38.1593C145.81 38.4993 146.12 39.0093 146.21 39.5793C146.3 40.1493 146.16 40.7293 145.82 41.1993L142.79 45.3393C142.37 45.9193 141.71 46.2293 141.04 46.2293L141.01 46.2493ZM165.15 37.3293C164.29 37.3293 163.48 36.8193 163.14 35.9693C162.62 34.6793 162.01 33.3193 161.33 31.9093C160.72 30.6393 160.04 29.4293 159.3 28.3093C158.93 27.7493 158.84 27.0593 159.05 26.4193C159.26 25.7893 159.76 25.2893 160.39 25.0693L161.88 24.5493C162.12 24.4693 162.36 24.4293 162.6 24.4293C163.24 24.4293 163.87 24.7193 164.29 25.2393C165.38 26.5893 166.39 28.0493 167.29 29.5893C168.07 30.9193 168.74 32.2493 169.28 33.5393C169.51 34.0893 169.5 34.6993 169.27 35.2393C169.03 35.7793 168.59 36.1993 168.03 36.4093L165.9 37.1993C165.65 37.2893 165.4 37.3393 165.15 37.3393V37.3293ZM173.91 34.1993C173.06 34.1993 172.26 33.6993 171.91 32.8793C171.37 31.6093 170.72 30.2493 169.98 28.8493C169.34 27.6393 168.66 26.4893 167.95 25.4393C167.57 24.8793 167.48 24.1793 167.69 23.5393C167.9 22.8993 168.4 22.3993 169.03 22.1693L170.5 21.6493C170.74 21.5693 170.98 21.5293 171.22 21.5293C171.86 21.5293 172.49 21.8193 172.91 22.3293C173.84 23.4793 174.79 24.8293 175.74 26.3393C176.58 27.6693 177.31 29.0093 177.92 30.2993C178.17 30.8393 178.19 31.4693 177.97 32.0193C177.75 32.5693 177.31 33.0193 176.75 33.2393L174.71 34.0393C174.45 34.1393 174.18 34.1893 173.92 34.1893L173.91 34.1993Z" fill="#303030"/>
<path d="M241.12 87.5098C240.81 87.5098 240.49 87.4398 240.2 87.3098C239.63 87.0398 239.21 86.5398 239.03 85.9398C238.77 85.0198 238.48 84.0898 238.18 83.1798C237.73 81.8198 237.25 80.4698 236.73 79.1598C228.87 80.6598 220.92 82.0098 213.09 83.1798C205.64 84.2898 198.57 85.2698 192.05 86.0898C191.96 86.0998 191.87 86.1098 191.78 86.1098C190.78 86.1098 189.89 85.4198 189.66 84.4098L188.35 78.5598C188.21 77.9498 188.35 77.3098 188.71 76.8098C189.08 76.2998 189.65 75.9798 190.27 75.9298L195.09 75.4998C196.83 71.3098 198.47 67.1398 199.96 63.0798C201.46 59.0098 202.82 55.0098 204.02 51.1898C205.21 47.3898 206.29 43.6798 207.23 40.1798C208.05 37.1198 208.76 34.1898 209.33 31.4798C209.55 30.4598 210.44 29.7598 211.45 29.7598C211.55 29.7598 211.66 29.7598 211.76 29.7798L218.65 30.7798C219.27 30.8698 219.82 31.2198 220.16 31.7398C220.5 32.2598 220.6 32.9098 220.43 33.5098C219.72 36.0798 218.91 38.8698 218.01 41.8098C216.93 45.3498 215.76 49.0198 214.52 52.7098C213.28 56.4198 211.94 60.1598 210.53 63.8198C209.12 67.4998 207.7 71.0298 206.3 74.2998C211.22 73.7398 216 73.1398 220.52 72.5398C225.02 71.9298 229.17 71.3198 232.83 70.7098C230.19 65.7598 227.04 61.0298 223.5 56.6598C223.07 56.1298 222.92 55.4398 223.08 54.7798C223.24 54.1198 223.7 53.5798 224.32 53.2998L229.46 51.0498C229.74 50.9298 230.04 50.8698 230.33 50.8698C230.97 50.8698 231.6 51.1498 232.02 51.6798C233.76 53.8298 235.45 56.1098 237.07 58.4398C238.85 61.0198 240.54 63.6998 242.08 66.4098C243.62 69.1198 245.02 71.9098 246.24 74.6998C247.31 77.1598 248.26 79.6498 249.04 82.0898C249.38 83.1498 248.87 84.2898 247.85 84.7398L241.97 87.3498C241.69 87.4698 241.39 87.5398 241.09 87.5398L241.12 87.5098Z" fill="#303030"/>
<path d="M272.59 87.9793C271.39 87.9793 270.42 87.0093 270.42 85.8093V31.4493C270.42 30.2493 271.39 29.2793 272.59 29.2793H278.55C279.75 29.2793 280.72 30.2493 280.72 31.4493V48.8893C283.43 49.3593 286.22 49.9393 289.01 50.6193C291.79 51.2993 294.59 52.0493 297.34 52.8393C300.07 53.6293 302.77 54.5093 305.38 55.4493C307.52 56.2193 309.61 57.0393 311.59 57.8793C312.15 58.1193 312.59 58.5893 312.79 59.1693C312.99 59.7493 312.94 60.3893 312.64 60.9193L309.69 66.3193C309.3 67.0393 308.55 67.4493 307.78 67.4493C307.47 67.4493 307.16 67.3793 306.86 67.2393C302.98 65.4193 298.87 63.7893 294.65 62.3993C290.04 60.8793 285.35 59.6293 280.72 58.6993V85.8093C280.72 87.0093 279.75 87.9793 278.55 87.9793H272.59Z" fill="#303030"/>
<path d="M369.35 86.0692C367.48 86.0692 365.72 86.0192 364.09 85.9292C362.47 85.8392 361.02 85.7392 359.75 85.6492C357.73 85.4592 355.9 85.0892 354.28 84.5592C352.67 84.0192 351.26 83.2392 350.12 82.2292C348.96 81.2092 348.09 79.9392 347.47 78.3492C346.86 76.7892 346.55 74.8692 346.55 72.6692L346.69 62.3692H330.45C329.25 62.3692 328.28 61.3992 328.28 60.1992V55.6492C328.28 54.4492 329.25 53.4792 330.45 53.4792H346.69C346.74 51.3392 346.76 49.2492 346.76 47.2692V41.2692H332.56C331.36 41.2692 330.39 40.2992 330.39 39.0992V34.6192C330.39 33.4192 331.36 32.4492 332.56 32.4492H380.15C381.35 32.4492 382.32 33.4192 382.32 34.6192V39.0992C382.32 40.2992 381.35 41.2692 380.15 41.2692H356.78L356.64 53.4792H383.11C384.31 53.4792 385.28 54.4492 385.28 55.6492V60.1992C385.28 61.3992 384.31 62.3692 383.11 62.3692H356.49V70.6192C356.49 72.5392 356.92 73.9592 357.76 74.8492C358.61 75.7492 360 76.3092 361.99 76.5392C362.93 76.6292 363.91 76.7192 364.92 76.7892C365.92 76.8592 367.03 76.8992 368.2 76.8992C370.54 76.8992 373.07 76.7892 375.71 76.5792C377.89 76.4092 380.16 76.1592 382.45 75.8392C382.55 75.8292 382.65 75.8192 382.75 75.8192C383.29 75.8192 383.81 76.0192 384.21 76.3892C384.69 76.8292 384.94 77.4492 384.92 78.0892L384.68 83.2892C384.63 84.3492 383.82 85.2192 382.77 85.3492C380.56 85.6092 378.38 85.7992 376.28 85.8992C373.86 86.0192 371.52 86.0792 369.33 86.0792L369.35 86.0692Z" fill="#303030"/>
<path d="M87.9598 46.8095C87.9598 45.4095 86.8198 44.2695 85.4198 44.2695H32.3598C30.9598 44.2695 29.8198 45.4095 29.8198 46.8095V56.5395C29.8198 57.9395 30.9598 59.0795 32.3598 59.0795H50.5198C51.9198 59.0795 53.0598 60.2195 53.0598 61.6195V100.94C53.0598 102.34 54.1998 103.48 55.5998 103.48H65.3298C66.7298 103.48 67.8698 102.34 67.8698 100.94V61.6195C67.8698 60.2195 69.0098 59.0795 70.4098 59.0795H85.4398C86.8398 59.0795 87.9798 57.9395 87.9798 56.5395V46.8095H87.9598Z" fill="#303030"/>
<path d="M32.88 23.8101C36.16 23.6401 39.06 22.1601 41.1 19.9001L48.45 23.7601C48.18 24.8701 48.05 26.0401 48.12 27.2401C48.46 33.8101 54.06 38.8601 60.63 38.5201C67.2 38.1801 72.25 32.5801 71.91 26.0101C71.57 19.4401 65.97 14.3901 59.4 14.7301C56.18 14.9001 53.33 16.3301 51.3 18.5201L43.86 14.6101C44.11 13.5501 44.22 12.4401 44.16 11.3001C43.82 4.73012 38.22 -0.319885 31.65 0.0201151C25.08 0.360115 20.03 5.96011 20.37 12.5301C20.71 19.1001 26.31 24.1501 32.88 23.8101Z" fill="#FF8C00"/>
<path d="M42.6499 92.6295C34.8699 92.6295 18.7999 90.8695 8.33993 77.5995C-3.70007 62.3395 -2.53007 39.4895 10.7199 23.2595C11.7999 21.9395 13.7799 21.8295 15.0199 22.9795L21.6899 29.1795C22.8299 30.2395 22.9299 31.9795 21.9699 33.2095C13.4299 44.0195 12.5299 58.6895 20.1199 68.3195C26.6099 76.5495 37.5599 77.5995 42.7899 77.5995C44.4199 77.5995 45.7299 78.9295 45.7299 80.5595V89.6695C45.7299 91.2995 44.4199 92.6295 42.7899 92.6295C42.7399 92.6295 42.6999 92.6295 42.6499 92.6295Z" fill="#303030"/>
</svg>
