<svg width="200" height="239" viewBox="0 0 200 239" fill="none" xmlns="http://www.w3.org/2000/svg">
<g clip-path="url(#clip0_1535_8213)">
<path d="M0 13.6379C0 6.56866 5.73077 0.837891 12.8 0.837891H187.2C194.269 0.837891 200 6.56866 200 13.6379V212.571H0V13.6379Z" fill="#8CABD8"/>
<mask id="mask0_1535_8213" style="mask-type:luminance" maskUnits="userSpaceOnUse" x="0" y="0" width="200" height="213">
<path d="M0 13.6379C0 6.56866 5.73077 0.837891 12.8 0.837891H187.2C194.269 0.837891 200 6.56866 200 13.6379V212.571H0V13.6379Z" fill="white"/>
</mask>
<g mask="url(#mask0_1535_8213)">
<path d="M-1.06667 13.6382C-1.06667 5.9798 5.14165 -0.228516 12.8 -0.228516H187.2C194.858 -0.228516 201.067 5.9798 201.067 13.6382H198.933C198.933 7.15799 193.68 1.90482 187.2 1.90482H12.8C6.31984 1.90482 1.06667 7.15799 1.06667 13.6382H-1.06667ZM-1.06667 212.572V13.6382C-1.06667 5.9798 5.14165 -0.228516 12.8 -0.228516V1.90482C6.31984 1.90482 1.06667 7.15799 1.06667 13.6382V212.572H-1.06667ZM187.2 -0.228516C194.858 -0.228516 201.067 5.9798 201.067 13.6382V212.572H198.933V13.6382C198.933 7.15799 193.68 1.90482 187.2 1.90482V-0.228516Z" fill="black"/>
</g>
<path d="M1.06667 127.238H198.933V212.572H1.06667V127.238Z" fill="#F2F2F2"/>
<mask id="mask1_1535_8213" style="mask-type:luminance" maskUnits="userSpaceOnUse" x="0" y="127" width="200" height="86">
<path d="M0 127.238H200V212.572H0V127.238Z" fill="#F2F2F2"/>
</mask>
<g mask="url(#mask1_1535_8213)">
<path d="M0 128.305H200V126.172H0V128.305Z" fill="black"/>
</g>
<path d="M99.9995 150.705C88.7787 150.705 81.0229 159.47 81.0229 169.726C81.0229 181.202 88.9456 189.105 100 189.105C111.481 189.105 118.977 181.129 118.977 169.726C118.977 159.4 111.18 150.705 99.9995 150.705ZM110.842 166.486C107.197 170.249 103.51 173.97 99.7792 177.648C99.3062 178.11 98.6725 178.369 98.0133 178.369C97.3547 178.369 96.7211 178.11 96.2475 177.648C94.4432 175.824 92.6747 173.964 90.8694 172.141C90.6342 171.908 90.4475 171.63 90.3195 171.324C90.1915 171.018 90.1253 170.689 90.1237 170.356C90.1227 170.023 90.1867 169.694 90.312 169.387C90.4379 169.079 90.6224 168.8 90.8555 168.565C91.0886 168.33 91.3653 168.144 91.6699 168.017C91.9749 167.891 92.3013 167.826 92.6309 167.827C92.9605 167.829 93.2869 167.895 93.5904 168.025C93.8944 168.154 94.1701 168.342 94.4011 168.579C95.6214 169.811 96.8272 171.057 98.0363 172.3C101.152 169.199 104.243 166.074 107.31 162.924C107.542 162.691 107.817 162.505 108.12 162.378C108.423 162.252 108.748 162.187 109.076 162.187C109.404 162.187 109.729 162.252 110.031 162.378C110.334 162.505 110.61 162.69 110.842 162.924C111.074 163.158 111.258 163.436 111.383 163.741C111.509 164.047 111.573 164.374 111.573 164.705C111.573 165.036 111.509 165.364 111.383 165.669C111.258 165.975 111.074 166.253 110.842 166.486Z" fill="#FF8C00"/>
<path d="M173.15 237.966C167.006 237.44 159.361 235.823 153.957 232.213C151.694 230.703 146.611 225.098 140.975 219.649C139.252 217.983 138.324 216.046 138.995 213.749C139.188 213.098 139.543 212.508 140.029 212.032C140.515 211.556 141.114 211.212 141.77 211.03C142.802 210.727 143.865 210.548 144.939 210.494L145.151 210.476C140.565 204.47 133.619 195.357 128.934 189.296C127.242 187.105 125.919 182.567 128.961 180.236C131.914 177.973 134.918 179.689 137.11 182.109C140.592 185.956 148.203 195.186 151.799 199.112C151.607 196.912 152.775 194.784 155.536 193.81C157.692 193.05 160.046 193.709 161.029 195.614C160.417 193.639 161.518 191.199 163.88 190.105C166.241 189.011 169.134 189.266 170.366 191.288C170.141 189.383 171.875 187.886 173.576 187.281C175.407 186.63 178.16 187.203 180.17 189.59C184.078 194.231 187.244 199.12 189.994 203.346C194.009 209.52 196.738 214.177 198.193 216.8L173.15 237.966Z" fill="white"/>
<path d="M150.106 215.603C147.871 212.695 145.661 209.768 143.442 206.848C140.142 202.506 136.839 198.168 133.531 193.833C132.755 192.818 131.978 191.804 131.201 190.79C130.49 189.944 129.834 189.053 129.236 188.124C128.19 186.322 127.565 183.78 128.754 181.918C129.12 181.363 129.619 180.909 130.206 180.597C130.794 180.285 131.45 180.126 132.114 180.134C133.527 180.182 134.805 181.073 135.801 182.006C136.585 182.783 137.33 183.599 138.033 184.45C138.804 185.337 139.57 186.228 140.33 187.124C143.645 191.014 146.901 194.959 150.291 198.785C150.599 199.134 150.91 199.48 151.224 199.825C151.972 200.647 153.187 199.426 152.442 198.608C148.999 194.83 145.759 190.865 142.451 186.97C140.953 185.206 139.458 183.436 137.91 181.714C135.764 179.329 132.556 177.364 129.388 179.098C128.095 179.789 127.122 180.955 126.674 182.35C126.323 183.605 126.309 184.93 126.634 186.192C126.903 187.37 127.387 188.489 128.061 189.492C128.733 190.478 129.515 191.402 130.242 192.35C133.652 196.8 137.052 201.259 140.44 205.726C143.005 209.1 145.571 212.473 148.137 215.846C148.297 216.055 148.458 216.265 148.618 216.473C148.739 216.665 148.927 216.804 149.146 216.861C149.365 216.918 149.597 216.89 149.796 216.782C149.993 216.666 150.135 216.478 150.193 216.257C150.251 216.037 150.219 215.802 150.106 215.605L150.106 215.603Z" fill="#211715"/>
<path d="M173.271 236.982C169.874 236.703 166.51 236.104 163.227 235.192C160.059 234.295 156.856 233.075 154.163 231.156C154.11 231.124 154.061 231.087 154.017 231.045C153.922 230.97 153.827 230.894 153.733 230.816C153.523 230.643 153.317 230.465 153.113 230.285C152.625 229.854 152.149 229.406 151.678 228.954C150.481 227.807 149.313 226.627 148.145 225.45C146.751 224.044 145.36 222.635 143.954 221.241C143.206 220.499 142.454 219.762 141.696 219.03C141.078 218.466 140.552 217.81 140.137 217.087C139.388 215.701 139.377 213.763 140.534 212.583C141.62 211.477 143.403 211.339 144.934 211.216C145.163 211.211 145.38 211.118 145.542 210.958C145.703 210.798 145.797 210.582 145.802 210.355C145.801 210.128 145.709 209.91 145.546 209.749C145.384 209.587 145.164 209.496 144.934 209.494C143.343 209.623 141.495 209.782 140.13 210.695C139.393 211.203 138.799 211.891 138.405 212.691C138.011 213.493 137.83 214.38 137.88 215.27C137.953 217.124 138.94 218.735 140.233 220.02C141.8 221.577 143.389 223.111 144.945 224.678C147.332 227.082 149.657 229.603 152.238 231.809C154.75 233.956 157.94 235.311 161.06 236.333C165.024 237.589 169.122 238.384 173.271 238.704C173.5 238.702 173.72 238.61 173.883 238.449C174.045 238.288 174.137 238.07 174.139 237.842C174.134 237.616 174.041 237.399 173.879 237.239C173.718 237.078 173.5 236.986 173.271 236.982Z" fill="#211715"/>
<path d="M152.569 199.114C152.422 197.201 153.444 195.646 155.209 194.833C156.949 194.03 159.207 194.236 160.185 196.054C160.646 196.913 162.036 196.325 161.763 195.392C161.21 193.504 162.508 191.613 164.275 190.834C165.943 190.1 168.425 190.011 169.516 191.735C169.937 192.401 171.211 192.201 171.125 191.301C171.002 190.009 171.915 189.051 172.987 188.457C173.882 187.938 174.943 187.778 175.953 188.01C177.282 188.322 178.474 189.054 179.349 190.098C180.514 191.422 181.587 192.838 182.637 194.252C184.624 196.929 186.474 199.701 188.294 202.49C190.089 205.241 191.861 208.006 193.573 210.809C194.862 212.921 196.125 215.047 197.326 217.208C197.866 218.174 199.357 217.31 198.818 216.341C196.033 211.332 192.958 206.485 189.826 201.685C187.87 198.687 185.882 195.709 183.727 192.847C183.156 192.089 182.574 191.338 181.981 190.595C181.417 189.845 180.81 189.127 180.162 188.447C179.096 187.367 177.732 186.626 176.242 186.318C174.745 186.022 173.19 186.302 171.892 187.102C170.433 187.991 169.227 189.514 169.398 191.3L171.007 190.867C169.405 188.335 166.052 188.196 163.524 189.297C161.041 190.376 159.307 193.15 160.097 195.847L161.676 195.186C160.291 192.61 157.105 192.157 154.595 193.234C152.222 194.252 150.641 196.501 150.842 199.113C150.847 199.339 150.94 199.554 151.101 199.714C151.261 199.874 151.478 199.966 151.706 199.972C151.934 199.97 152.153 199.879 152.314 199.718C152.476 199.557 152.567 199.34 152.569 199.113V199.114Z" fill="#211715"/>
<g clip-path="url(#clip1_1535_8213)">
<path d="M36.5 14.7715H12.5V38.7715H36.5V14.7715Z" fill="white"/>
<path d="M24.1225 22.2576C24.9266 22.2576 25.5784 21.6057 25.5784 20.8016C25.5784 19.9975 24.9266 19.3457 24.1225 19.3457C23.3184 19.3457 22.6666 19.9975 22.6666 20.8016C22.6666 21.6057 23.3184 22.2576 24.1225 22.2576Z" fill="#FF8C00"/>
<path d="M27.4172 24.2283C28.2212 24.2283 28.8731 23.5764 28.8731 22.7723C28.8731 21.9682 28.2212 21.3164 27.4172 21.3164C26.6131 21.3164 25.9612 21.9682 25.9612 22.7723C25.9612 23.5764 26.6131 24.2283 27.4172 24.2283Z" fill="#FF8C00"/>
<path d="M30.8884 27.4881H23.5341C22.8791 27.4881 22.3486 26.9571 22.3486 26.3027C22.3486 25.6482 22.8797 25.1172 23.5341 25.1172H30.8884C31.5434 25.1172 32.0739 25.6482 32.0739 26.3027C32.0739 26.9571 31.5429 27.4881 30.8884 27.4881Z" fill="black"/>
<path d="M27.4172 34.1957C26.7622 34.1957 26.2317 33.6646 26.2317 33.0102V26.7441C26.2317 26.0891 26.7628 25.5586 27.4172 25.5586C28.0716 25.5586 28.6026 26.0897 28.6026 26.7441V33.0102C28.6026 33.6652 28.0716 34.1957 27.4172 34.1957Z" fill="black"/>
<path d="M24.285 20.4681L23.9126 21.0957L27.2323 23.0652L27.6046 22.4376L24.285 20.4681Z" fill="#FF8C00"/>
<path d="M22.461 32.7039C20.1242 32.7039 17.9502 31.204 17.2071 28.8602C16.7687 27.4779 16.9216 26.0845 17.649 24.8307C18.2449 23.8033 19.2144 22.8726 20.5302 22.0642C21.0885 21.7213 21.8181 21.8962 22.161 22.4539C22.5038 23.0116 22.3289 23.7419 21.7712 24.0848C19.7767 25.3096 19.0019 26.6752 19.4675 28.1433C19.9904 29.7921 21.7573 30.7082 23.4061 30.1853C24.0304 29.9872 24.697 30.333 24.8945 30.9567C25.0925 31.581 24.7468 32.247 24.1231 32.445C23.5712 32.6199 23.0117 32.7033 22.461 32.7033V32.7039Z" fill="black"/>
</g>
</g>
<defs>
<clipPath id="clip0_1535_8213">
<rect width="200" height="237.867" fill="white" transform="translate(0 0.837891)"/>
</clipPath>
<clipPath id="clip1_1535_8213">
<rect x="12.5" y="14.7715" width="24" height="24" rx="12" fill="white"/>
</clipPath>
</defs>
</svg>
