<svg width="22" height="33" viewBox="0 0 22 33" fill="none" xmlns="http://www.w3.org/2000/svg">
<path fill-rule="evenodd" clip-rule="evenodd" d="M9.85674 13.9611C9.97783 13.5409 10.0427 13.0968 10.0427 12.6376C10.0427 10.0024 7.90654 7.86621 5.2714 7.86621C2.63626 7.86621 0.5 10.0024 0.5 12.6376C0.5 15.2727 2.63626 17.4089 5.2714 17.4089C6.58543 17.4089 7.77538 16.8777 8.63826 16.0184L11.4961 17.7146C11.3643 18.1515 11.2935 18.6149 11.2935 19.0948C11.2935 21.7299 13.4297 23.8661 16.0649 23.8661C18.7 23.8661 20.8362 21.7299 20.8362 19.0948C20.8362 16.4596 18.7 14.3234 16.0649 14.3234C14.7721 14.3234 13.5994 14.8376 12.7401 15.6725L9.85674 13.9611Z" fill="#FF8C00"/>
</svg>
