<svg width="200" height="216" viewBox="0 0 200 216" fill="none" xmlns="http://www.w3.org/2000/svg">
<mask id="mask0_1572_6054" style="mask-type:luminance" maskUnits="userSpaceOnUse" x="0" y="0" width="200" height="216">
<path d="M200 0.705078H0V215.638H200V0.705078Z" fill="white"/>
</mask>
<g mask="url(#mask0_1572_6054)">
<path d="M0 13.5051C0 6.43585 5.73077 0.705078 12.8 0.705078H187.2C194.269 0.705078 200 6.43585 200 13.5051V185.772H0V13.5051Z" fill="#F2F2F2"/>
<mask id="mask1_1572_6054" style="mask-type:luminance" maskUnits="userSpaceOnUse" x="0" y="0" width="200" height="186">
<path d="M0 13.5051C0 6.43585 5.73077 0.705078 12.8 0.705078H187.2C194.269 0.705078 200 6.43585 200 13.5051V185.772H0V13.5051Z" fill="white"/>
</mask>
<g mask="url(#mask1_1572_6054)">
<path d="M-1.06667 13.5053C-1.06667 5.84699 5.14165 -0.361328 12.8 -0.361328H187.2C194.858 -0.361328 201.067 5.84699 201.067 13.5053H198.933C198.933 7.02518 193.68 1.77201 187.2 1.77201H12.8C6.31984 1.77201 1.06667 7.02518 1.06667 13.5053H-1.06667ZM-1.06667 185.772V13.5053C-1.06667 5.84699 5.14165 -0.361328 12.8 -0.361328V1.77201C6.31984 1.77201 1.06667 7.02518 1.06667 13.5053V185.772H-1.06667ZM187.2 -0.361328C194.858 -0.361328 201.067 5.84699 201.067 13.5053V185.772H198.933V13.5053C198.933 7.02518 193.68 1.77201 187.2 1.77201V-0.361328Z" fill="black"/>
</g>
<path d="M181.333 26.8379H19.2C17.1381 26.8379 15.4667 28.0648 15.4667 29.5783V60.8976C15.4667 62.4112 17.1381 63.6379 19.2 63.6379H181.333C183.395 63.6379 185.067 62.4112 185.067 60.8976V29.5783C185.067 28.0648 183.395 26.8379 181.333 26.8379Z" fill="white"/>
<path d="M181.333 74.8379H19.2C17.1381 74.8379 15.4667 76.0646 15.4667 77.5782V108.898C15.4667 110.411 17.1381 111.638 19.2 111.638H181.333C183.395 111.638 185.067 110.411 185.067 108.898V77.5782C185.067 76.0646 183.395 74.8379 181.333 74.8379Z" fill="white"/>
<path d="M181.333 26.8379H19.2C17.1381 26.8379 15.4667 28.0648 15.4667 29.5783V60.8976C15.4667 62.4112 17.1381 63.6379 19.2 63.6379H181.333C183.395 63.6379 185.067 62.4112 185.067 60.8976V29.5783C185.067 28.0648 183.395 26.8379 181.333 26.8379Z" stroke="black"/>
<path d="M181.333 74.8379H19.2C17.1381 74.8379 15.4667 76.0646 15.4667 77.5782V108.898C15.4667 110.411 17.1381 111.638 19.2 111.638H181.333C183.395 111.638 185.067 110.411 185.067 108.898V77.5782C185.067 76.0646 183.395 74.8379 181.333 74.8379Z" stroke="black"/>
<path d="M176.533 39.1055H24.5333V51.9055H176.533V39.1055Z" fill="#F2F2F2"/>
<path d="M176.533 87.1055H24.5333V99.9055H176.533V87.1055Z" fill="#F2F2F2"/>
<mask id="mask2_1572_6054" style="mask-type:luminance" maskUnits="userSpaceOnUse" x="14" y="135" width="171" height="27">
<path d="M171.733 135.639H27.7333C20.6641 135.639 14.9333 141.369 14.9333 148.439C14.9333 155.508 20.6641 161.239 27.7333 161.239H171.733C178.803 161.239 184.533 155.508 184.533 148.439C184.533 141.369 178.803 135.639 171.733 135.639Z" fill="white"/>
</mask>
<g mask="url(#mask2_1572_6054)">
<path d="M171.733 135.639H27.7333C20.6641 135.639 14.9333 141.369 14.9333 148.439C14.9333 155.508 20.6641 161.239 27.7333 161.239H171.733C178.803 161.239 184.533 155.508 184.533 148.439C184.533 141.369 178.803 135.639 171.733 135.639Z" fill="#F2F2F2"/>
<mask id="mask3_1572_6054" style="mask-type:luminance" maskUnits="userSpaceOnUse" x="14" y="135" width="171" height="27">
<path d="M171.733 135.639H27.7333C20.6641 135.639 14.9333 141.369 14.9333 148.439C14.9333 155.508 20.6641 161.239 27.7333 161.239H171.733C178.803 161.239 184.533 155.508 184.533 148.439C184.533 141.369 178.803 135.639 171.733 135.639Z" fill="white"/>
</mask>
<g mask="url(#mask3_1572_6054)">
<path d="M171.733 135.639H27.7333C20.6641 135.639 14.9333 141.369 14.9333 148.439C14.9333 155.508 20.6641 161.239 27.7333 161.239H171.733C178.803 161.239 184.533 155.508 184.533 148.439C184.533 141.369 178.803 135.639 171.733 135.639Z" fill="#F2F2F2"/>
<mask id="mask4_1572_6054" style="mask-type:luminance" maskUnits="userSpaceOnUse" x="14" y="135" width="171" height="27">
<path d="M171.733 135.639H27.7333C20.6641 135.639 14.9333 141.369 14.9333 148.439C14.9333 155.508 20.6641 161.239 27.7333 161.239H171.733C178.803 161.239 184.533 155.508 184.533 148.439C184.533 141.369 178.803 135.639 171.733 135.639Z" fill="white"/>
</mask>
<g mask="url(#mask4_1572_6054)">
<path d="M171.733 135.639H27.7333C20.6641 135.639 14.9333 141.369 14.9333 148.439C14.9333 155.508 20.6641 161.239 27.7333 161.239H171.733C178.803 161.239 184.533 155.508 184.533 148.439C184.533 141.369 178.803 135.639 171.733 135.639Z" fill="#FF8C00"/>
<path d="M88.4235 145.071H88.9611V145.982C88.9611 146.632 88.7968 147.423 87.9979 147.953C87.9232 147.849 87.7067 147.655 87.5947 147.58C88.3115 147.117 88.4235 146.497 88.4235 145.975V145.071ZM90.2453 145.071H90.7755V146.908C90.7755 147.072 90.7979 147.102 90.9173 147.102C90.9771 147.102 91.2235 147.102 91.2981 147.102C91.4251 147.102 91.4549 147.005 91.4699 146.288C91.5744 146.371 91.7984 146.453 91.9403 146.49C91.8955 147.364 91.7611 147.595 91.3579 147.595C91.2608 147.595 90.9323 147.595 90.8352 147.595C90.3797 147.595 90.2453 147.446 90.2453 146.916V145.071ZM88.8267 148.596C89.3419 149.88 90.4544 150.836 91.9552 151.216C91.8283 151.336 91.664 151.56 91.5893 151.702C90.0363 151.246 88.9237 150.216 88.3264 148.752L88.8267 148.596ZM90.9173 148.073H91.0293L91.1264 148.051L91.4848 148.192C90.9547 150.149 89.5509 151.224 87.9157 151.702C87.856 151.567 87.7141 151.328 87.6096 151.209C89.1179 150.828 90.4693 149.82 90.9173 148.163V148.073ZM87.9381 148.073H91.1339V148.581H87.9381V148.073ZM88.6475 145.071H90.5141V145.572H88.6475V145.071ZM85.3547 147.095H87.5797V147.543H85.3547V147.095ZM85.392 145.101H87.5648V145.549H85.392V145.101ZM85.3547 148.095H87.5797V148.543H85.3547V148.095ZM85.0037 146.079H87.8411V146.542H85.0037V146.079ZM85.6235 149.103H87.5797V151.284H85.6235V150.813H87.0869V149.566H85.6235V149.103ZM85.3472 149.103H85.8325V151.627H85.3472V149.103ZM93.8155 147.117H98.1685V147.655H93.8155V147.117ZM95.9659 148.902H98.4821V149.432H95.9659V148.902ZM95.6672 147.393H96.2496V151.172L95.6672 151.097V147.393ZM93.8976 148.297L94.48 148.357C94.2709 149.865 93.8005 151.007 92.9568 151.739C92.8672 151.642 92.6283 151.448 92.4939 151.366C93.3301 150.716 93.7333 149.648 93.8976 148.297ZM94.2485 149.26C94.7787 150.783 95.9434 151.045 97.4592 151.045C97.7354 151.045 99.0272 151.045 99.3931 151.037C99.3035 151.172 99.2064 151.44 99.184 151.605H97.4293C95.6523 151.605 94.4352 151.254 93.7931 149.432L94.2485 149.26ZM95.6597 144.84H96.2496V146.049H95.6597V144.84ZM92.8523 145.691H99.0944V147.319H98.5195V146.229H93.4048V147.319H92.8523V145.691ZM104.442 145.191C104.427 145.28 104.404 145.572 104.404 145.661C104.382 146.147 104.397 147.588 104.404 148.185L103.837 147.894C103.837 147.565 103.829 146.079 103.807 145.669C103.792 145.467 103.77 145.258 103.755 145.191H104.442ZM100.469 146.236C101.485 146.221 103.351 146.154 104.501 146.154C105.412 146.154 106.338 146.154 106.689 146.161L106.682 146.714C106.263 146.692 105.591 146.677 104.494 146.677C103.21 146.677 101.612 146.729 100.484 146.811L100.469 146.236ZM104.389 148.401C104.389 149.402 103.926 149.902 103.247 149.902C102.62 149.902 102.015 149.462 102.015 148.648C102.015 147.909 102.627 147.356 103.337 147.356C104.203 147.356 104.643 147.998 104.643 148.857C104.643 149.872 104.15 150.992 102.418 151.508L101.918 151.022C103.277 150.701 104.068 150.037 104.068 148.805C104.068 148.133 103.74 147.849 103.337 147.849C102.941 147.849 102.575 148.155 102.575 148.64C102.575 149.111 102.926 149.38 103.337 149.38C103.799 149.38 104.098 148.991 103.979 148.192L104.389 148.401ZM109.057 145.609C109.221 145.624 109.43 145.631 109.58 145.631C109.975 145.631 111.745 145.579 112.141 145.542C112.365 145.519 112.469 145.504 112.551 145.475L112.895 145.915C112.761 146.005 112.611 146.102 112.469 146.214C112.103 146.497 111.088 147.371 110.506 147.849C110.849 147.737 111.207 147.7 111.543 147.7C112.783 147.7 113.671 148.439 113.671 149.447C113.671 150.649 112.678 151.433 111.095 151.433C110.08 151.433 109.46 150.992 109.46 150.365C109.46 149.857 109.923 149.395 110.61 149.395C111.603 149.395 112.103 150.096 112.156 150.851L111.618 150.94C111.573 150.305 111.207 149.85 110.61 149.85C110.267 149.85 110.005 150.059 110.005 150.32C110.005 150.686 110.416 150.903 111.006 150.903C112.275 150.903 113.074 150.38 113.074 149.447C113.074 148.708 112.372 148.163 111.394 148.163C110.155 148.163 109.483 148.685 108.542 149.648L108.109 149.215C108.729 148.708 109.692 147.901 110.117 147.535C110.535 147.192 111.476 146.408 111.85 146.072C111.454 146.094 109.961 146.154 109.572 146.176C109.401 146.191 109.236 146.199 109.072 146.221L109.057 145.609Z" fill="white"/>
</g>
</g>
</g>
<path d="M167.817 214.899C161.673 214.374 154.028 212.756 148.623 209.147C146.361 207.636 141.277 202.032 135.642 196.583C133.918 194.917 132.99 192.979 133.661 190.683C133.854 190.032 134.21 189.441 134.696 188.965C135.181 188.49 135.78 188.145 136.437 187.963C137.468 187.661 138.532 187.481 139.606 187.428L139.818 187.41C135.232 181.403 128.285 172.29 123.601 166.23C121.909 164.039 120.586 159.501 123.628 157.169C126.58 154.907 129.585 156.622 131.777 159.043C135.259 162.889 142.869 172.12 146.466 176.046C146.274 173.846 147.442 171.717 150.203 170.744C152.359 169.984 154.713 170.643 155.696 172.547C155.084 170.573 156.185 168.132 158.547 167.038C160.908 165.945 163.801 166.2 165.033 168.221C164.807 166.316 166.541 164.819 168.243 164.214C170.074 163.564 172.827 164.137 174.837 166.523C178.745 171.164 181.911 176.054 184.66 180.28C188.675 186.453 191.404 191.11 192.86 193.734L167.817 214.899Z" fill="white"/>
<path d="M144.773 192.537C142.538 189.629 140.328 186.701 138.109 183.781C134.809 179.44 131.506 175.102 128.198 170.766C127.421 169.752 126.645 168.738 125.868 167.724C125.157 166.877 124.5 165.987 123.903 165.057C122.857 163.256 122.232 160.714 123.421 158.851C123.787 158.297 124.286 157.842 124.873 157.531C125.46 157.219 126.116 157.059 126.781 157.067C128.194 157.116 129.472 158.006 130.467 158.94C131.252 159.717 131.997 160.532 132.7 161.384C133.471 162.27 134.236 163.162 134.996 164.057C138.312 167.947 141.567 171.893 144.957 175.719C145.266 176.067 145.577 176.414 145.891 176.759C146.638 177.58 147.854 176.36 147.108 175.542C143.666 171.764 140.426 167.798 137.118 163.904C135.62 162.139 134.124 160.37 132.577 158.648C130.431 156.262 127.222 154.297 124.055 156.032C122.762 156.722 121.788 157.889 121.34 159.284C120.989 160.538 120.975 161.864 121.3 163.125C121.57 164.304 122.053 165.422 122.727 166.425C123.4 167.412 124.182 168.336 124.908 169.284C128.319 173.734 131.718 178.193 135.107 182.66C137.671 186.034 140.237 189.407 142.804 192.779C142.964 192.989 143.124 193.198 143.285 193.407C143.405 193.599 143.594 193.737 143.813 193.795C144.031 193.852 144.264 193.824 144.463 193.716C144.659 193.6 144.802 193.411 144.859 193.19C144.917 192.97 144.886 192.736 144.772 192.538L144.773 192.537Z" fill="#211715"/>
<path d="M167.938 213.917C164.54 213.638 161.177 213.039 157.894 212.128C154.725 211.231 151.523 210.011 148.829 208.092C148.777 208.06 148.728 208.022 148.683 207.981C148.588 207.905 148.493 207.83 148.4 207.752C148.19 207.578 147.983 207.401 147.78 207.22C147.291 206.79 146.816 206.341 146.345 205.89C145.147 204.742 143.98 203.563 142.812 202.385C141.418 200.98 140.027 199.57 138.62 198.176C137.873 197.435 137.121 196.698 136.363 195.965C135.745 195.401 135.219 194.746 134.803 194.022C134.054 192.637 134.044 190.698 135.201 189.518C136.286 188.412 138.069 188.275 139.601 188.152C139.829 188.146 140.047 188.054 140.209 187.894C140.37 187.733 140.463 187.518 140.469 187.291C140.467 187.063 140.375 186.845 140.213 186.684C140.051 186.522 139.83 186.431 139.601 186.43C138.01 186.558 136.162 186.717 134.797 187.631C134.059 188.139 133.466 188.826 133.071 189.627C132.678 190.428 132.497 191.316 132.547 192.205C132.619 194.06 133.607 195.671 134.9 196.956C136.467 198.512 138.055 200.046 139.612 201.614C141.999 204.017 144.323 206.539 146.905 208.745C149.417 210.892 152.606 212.246 155.726 213.269C159.691 214.525 163.788 215.32 167.938 215.639C168.167 215.637 168.387 215.546 168.549 215.385C168.711 215.224 168.804 215.006 168.805 214.778C168.801 214.551 168.708 214.335 168.546 214.174C168.385 214.014 168.166 213.921 167.938 213.917Z" fill="#211715"/>
<path d="M147.236 176.047C147.089 174.134 148.111 172.58 149.875 171.766C151.615 170.963 153.874 171.169 154.851 172.987C155.313 173.847 156.703 173.259 156.429 172.326C155.877 170.438 157.175 168.546 158.941 167.768C160.61 167.033 163.091 166.944 164.182 168.669C164.604 169.335 165.878 169.134 165.792 168.235C165.668 166.942 166.581 165.985 167.653 165.391C168.549 164.872 169.61 164.712 170.62 164.943C171.949 165.256 173.141 165.988 174.016 167.031C175.181 168.355 176.254 169.771 177.304 171.186C179.291 173.862 181.14 176.634 182.961 179.424C184.756 182.175 186.528 184.939 188.24 187.742C189.529 189.854 190.791 191.981 191.993 194.142C192.533 195.108 194.023 194.243 193.484 193.274C190.7 188.265 187.625 183.419 184.493 178.619C182.537 175.621 180.548 172.643 178.394 169.781C177.822 169.022 177.241 168.271 176.647 167.529C176.084 166.778 175.476 166.061 174.829 165.381C173.763 164.301 172.398 163.56 170.909 163.251C169.411 162.956 167.857 163.236 166.559 164.035C165.099 164.925 163.893 166.448 164.065 168.234L165.674 167.8C164.071 165.269 160.718 165.13 158.19 166.23C155.707 167.31 153.973 170.083 154.764 172.781L156.342 172.119C154.958 169.544 151.772 169.09 149.262 170.167C146.889 171.185 145.307 173.434 145.508 176.046C145.514 176.272 145.606 176.488 145.767 176.648C145.928 176.808 146.145 176.9 146.372 176.905C146.601 176.904 146.819 176.813 146.981 176.651C147.142 176.491 147.234 176.273 147.236 176.046V176.047Z" fill="#211715"/>
</g>
</svg>
