<svg width="202" height="239" viewBox="0 0 202 239" fill="none" xmlns="http://www.w3.org/2000/svg">
<g clip-path="url(#clip0_1583_5700)">
<path d="M0.5 13.4387C0.5 6.36945 6.23077 0.638672 13.3 0.638672H187.7C194.769 0.638672 200.5 6.36945 200.5 13.4387V212.372H0.5V13.4387Z" fill="#8CABD8"/>
<mask id="mask0_1583_5700" style="mask-type:luminance" maskUnits="userSpaceOnUse" x="0" y="0" width="201" height="213">
<path d="M0.5 13.4387C0.5 6.36945 6.23077 0.638672 13.3 0.638672H187.7C194.769 0.638672 200.5 6.36945 200.5 13.4387V212.372H0.5V13.4387Z" fill="white"/>
</mask>
<g mask="url(#mask0_1583_5700)">
<path d="M-0.566666 13.4389C-0.566666 5.78059 5.64165 -0.427734 13.3 -0.427734H187.7C195.358 -0.427734 201.567 5.78059 201.567 13.4389H199.433C199.433 6.95877 194.18 1.7056 187.7 1.7056H13.3C6.81984 1.7056 1.56667 6.95877 1.56667 13.4389H-0.566666ZM-0.566666 212.372V13.4389C-0.566666 5.78059 5.64165 -0.427734 13.3 -0.427734V1.7056C6.81984 1.7056 1.56667 6.95877 1.56667 13.4389V212.372H-0.566666ZM187.7 -0.427734C195.358 -0.427734 201.567 5.78059 201.567 13.4389V212.372H199.433V13.4389C199.433 6.95877 194.18 1.7056 187.7 1.7056V-0.427734Z" fill="black"/>
</g>
<mask id="mask1_1583_5700" style="mask-type:luminance" maskUnits="userSpaceOnUse" x="1" y="77" width="199" height="136">
<path d="M199.433 77.4395H1.56667V212.373H199.433V77.4395Z" fill="white"/>
</mask>
<g mask="url(#mask1_1583_5700)">
<path d="M199.433 77.4395H1.56667V212.373H199.433V77.4395Z" fill="#F2F2F2"/>
<path d="M191.835 82.5605H9.16474C7.76595 82.5605 6.63203 83.7067 6.63203 85.1211V139.783C6.63203 141.197 7.76595 142.344 9.16474 142.344H191.835C193.234 142.344 194.368 141.197 194.368 139.783V85.1211C194.368 83.7067 193.234 82.5605 191.835 82.5605Z" fill="white"/>
<path d="M41.8365 116.864C41.7732 116.864 41.7274 116.836 41.6993 116.778L40.9923 115.733C40.9712 115.697 40.9606 115.669 40.9606 115.648C40.9606 115.591 40.9993 115.556 41.0767 115.541C42.0405 115.385 42.8003 115.061 43.3561 114.57C43.9119 114.08 44.2531 113.465 44.3797 112.725H40.6862C40.5877 112.725 40.5385 112.676 40.5385 112.576V111.52C40.5385 111.42 40.5877 111.37 40.6862 111.37H44.4325C44.4325 111.143 44.4325 110.908 44.4325 110.667C44.4325 110.417 44.429 110.176 44.4219 109.941C43.5355 110.055 42.5928 110.129 41.5938 110.165C41.5023 110.165 41.4425 110.129 41.4144 110.059L41.0028 109.035C40.9887 109.006 40.9817 108.981 40.9817 108.96C40.9817 108.896 41.0274 108.864 41.1189 108.864C42.5189 108.836 43.736 108.743 44.7702 108.586C45.8114 108.423 46.7155 108.181 47.4823 107.861C47.5104 107.847 47.535 107.84 47.5562 107.84C47.5984 107.84 47.637 107.865 47.6722 107.915L48.3054 108.853C48.3335 108.889 48.3476 108.924 48.3476 108.96C48.3476 108.996 48.33 109.02 48.2949 109.035C47.9431 109.177 47.5597 109.305 47.1446 109.419C46.7366 109.525 46.3004 109.625 45.836 109.717C45.8431 109.973 45.8466 110.247 45.8466 110.539C45.8466 110.823 45.8466 111.1 45.8466 111.37H49.118C49.2165 111.37 49.2657 111.42 49.2657 111.52V112.576C49.2657 112.676 49.2165 112.725 49.118 112.725H45.8149C45.7586 113.23 45.6285 113.707 45.4245 114.155C45.2275 114.603 44.9601 115.008 44.6224 115.371C44.2918 115.726 43.8943 116.032 43.43 116.288C42.9727 116.544 42.4591 116.736 41.8893 116.864H41.8365ZM51.7453 116.288C51.6468 116.288 51.5976 116.238 51.5976 116.139V115.157C51.5976 115.057 51.6468 115.008 51.7453 115.008H54.5733V111.36H52.0514C51.9529 111.36 51.9036 111.31 51.9036 111.211V110.24C51.9036 110.14 51.9529 110.091 52.0514 110.091H58.4779C58.5765 110.091 58.6256 110.14 58.6256 110.24V111.211C58.6256 111.31 58.5765 111.36 58.4779 111.36H55.9874V115.008H58.8578C58.9564 115.008 59.0055 115.057 59.0055 115.157V116.139C59.0055 116.238 58.9564 116.288 58.8578 116.288H51.7453ZM64.0603 116.864C64.0107 116.864 63.9654 116.839 63.9232 116.789L63.0895 115.829C63.0541 115.793 63.0367 115.761 63.0367 115.733C63.0367 115.684 63.0752 115.652 63.1528 115.637C64.0039 115.488 64.7357 115.264 65.3478 114.965C65.9599 114.66 66.4627 114.268 66.8569 113.792C67.2505 113.308 67.546 112.736 67.7433 112.075C67.9401 111.413 68.0493 110.645 68.0704 109.77C68.0704 109.664 68.1232 109.617 68.2287 109.632L69.3473 109.77C69.4386 109.777 69.4845 109.835 69.4845 109.941C69.407 110.923 69.2487 111.797 69.0096 112.565C68.7701 113.333 68.4324 114.005 67.9966 114.581C67.5671 115.15 67.0326 115.623 66.3925 116C65.752 116.377 64.9922 116.661 64.1131 116.853C64.0989 116.86 64.0815 116.864 64.0603 116.864ZM63.1528 113.28C63.0895 113.28 63.0504 113.241 63.0367 113.163C62.9803 112.715 62.8853 112.252 62.7518 111.776C62.6252 111.3 62.4669 110.858 62.2769 110.453C62.2627 110.425 62.2558 110.4 62.2558 110.378C62.2558 110.314 62.2906 110.279 62.3613 110.272L63.3005 110.048C63.3143 110.041 63.3322 110.037 63.3533 110.037C63.4024 110.037 63.4446 110.065 63.4799 110.123C63.6836 110.507 63.8598 110.937 64.0076 111.413C64.1553 111.889 64.2572 112.359 64.3136 112.821V112.853C64.3136 112.932 64.2746 112.981 64.1975 113.002L63.2056 113.28H63.1528ZM65.4322 112.864C65.3547 112.864 65.3161 112.821 65.3161 112.736C65.2808 112.288 65.2032 111.825 65.084 111.349C64.9711 110.865 64.8233 110.428 64.6408 110.037C64.6265 109.994 64.6196 109.969 64.6196 109.963C64.6196 109.905 64.6582 109.866 64.7357 109.845L65.7066 109.621C65.7135 109.614 65.7309 109.611 65.7594 109.611C65.8084 109.611 65.8506 109.639 65.886 109.696C66.0548 110.08 66.2057 110.517 66.3398 111.008C66.4733 111.499 66.5577 111.972 66.593 112.427V112.448C66.593 112.526 66.554 112.576 66.477 112.597L65.485 112.853C65.4707 112.86 65.4533 112.864 65.4322 112.864ZM73.7579 116.97C73.6946 116.97 73.6487 116.945 73.6207 116.896L72.7765 115.765C72.7554 115.723 72.7448 115.69 72.7448 115.669C72.7448 115.612 72.7802 115.58 72.8504 115.573C73.6244 115.445 74.342 115.221 75.0032 114.901C75.6643 114.574 76.2521 114.161 76.7655 113.664C77.2789 113.159 77.7047 112.572 78.0424 111.904C78.3869 111.228 78.6265 110.481 78.76 109.664L75.7313 109.675C75.6189 109.952 75.4744 110.244 75.2986 110.549C75.1229 110.848 74.9224 111.143 74.6971 111.435C74.4718 111.726 74.2259 112.004 73.9584 112.267C73.6983 112.523 73.4271 112.747 73.1459 112.939C73.1179 112.96 73.0862 112.97 73.0509 112.97C73.0229 112.97 72.9839 112.953 72.9348 112.917L72.0061 112.075C71.9708 112.039 71.9534 112.007 71.9534 111.978C71.9534 111.936 71.9782 111.9 72.0272 111.872C72.3792 111.665 72.6989 111.42 72.9876 111.136C73.2762 110.852 73.5326 110.553 73.7579 110.24C73.9832 109.927 74.1732 109.617 74.3278 109.312C74.4898 108.999 74.6164 108.715 74.7077 108.459C74.7288 108.38 74.7816 108.341 74.866 108.341L80.3324 108.331C80.4379 108.331 80.4838 108.395 80.4696 108.523C80.364 109.703 80.1356 110.759 79.7836 111.691C79.4391 112.615 78.9816 113.425 78.4117 114.123C77.8419 114.812 77.1702 115.392 76.3961 115.861C75.6221 116.33 74.7604 116.697 73.8107 116.96C73.7964 116.967 73.779 116.97 73.7579 116.97ZM86.5607 116.864C86.462 116.864 86.4129 116.814 86.4129 116.715L86.4235 112.48C85.8536 112.871 85.2695 113.216 84.6717 113.515C84.0739 113.813 83.4687 114.059 82.8566 114.251C82.8424 114.257 82.8213 114.261 82.7933 114.261C82.7368 114.261 82.6946 114.233 82.6667 114.176L81.9491 113.045C81.928 113.009 81.9174 112.981 81.9174 112.96C81.9174 112.903 81.9559 112.868 82.0335 112.853C82.7933 112.661 83.5109 112.401 84.1863 112.075C84.8685 111.748 85.4985 111.371 86.0753 110.944C86.652 110.517 87.1728 110.055 87.6371 109.557C88.1083 109.052 88.513 108.533 88.8507 108C88.9071 107.921 88.9736 107.904 89.0512 107.947L90.2014 108.512C90.2579 108.548 90.2859 108.587 90.2859 108.629C90.2859 108.651 90.2753 108.679 90.2542 108.715C89.5999 109.668 88.8227 110.538 87.922 111.328L87.9431 116.715C87.9431 116.814 87.894 116.864 87.7954 116.864H86.5607ZM93.3694 116.576C93.2992 116.576 93.2533 116.537 93.2322 116.459L92.8523 115.243L92.8418 115.189C92.8418 115.118 92.884 115.079 92.9684 115.072C93.8833 114.951 94.6922 114.741 95.3956 114.443C96.0994 114.144 96.7184 113.756 97.2529 113.28C97.7879 112.804 98.2448 112.241 98.6247 111.594C99.0047 110.948 99.3286 110.222 99.5956 109.419C99.6167 109.355 99.6521 109.323 99.7011 109.323C99.7296 109.323 99.7576 109.329 99.7856 109.344L100.851 109.994C100.929 110.052 100.954 110.112 100.925 110.176C100.644 111.022 100.285 111.804 99.8489 112.523C99.4131 113.241 98.8854 113.877 98.266 114.432C97.647 114.98 96.9363 115.438 96.1343 115.808C95.3322 116.171 94.4247 116.427 93.4116 116.576H93.3694ZM95.3006 111.488C95.2726 111.488 95.241 111.47 95.2056 111.435C95.0231 111.264 94.8225 111.097 94.6041 110.933C94.393 110.763 94.1751 110.602 93.9498 110.453C93.725 110.304 93.496 110.169 93.2639 110.048C93.0391 109.92 92.8207 109.813 92.6096 109.728C92.5463 109.706 92.5146 109.671 92.5146 109.621C92.5146 109.585 92.5252 109.553 92.5463 109.525L93.2744 108.555C93.3309 108.491 93.3942 108.473 93.4644 108.501C93.6897 108.587 93.9219 108.689 94.1609 108.811C94.4073 108.932 94.65 109.067 94.889 109.216C95.1354 109.358 95.3745 109.515 95.6066 109.685C95.8388 109.849 96.0535 110.023 96.2504 110.208C96.2926 110.236 96.3137 110.272 96.3137 110.315C96.3137 110.35 96.2963 110.385 96.2609 110.421L95.4167 111.424C95.3745 111.467 95.3359 111.488 95.3006 111.488ZM105.12 117.077C105.05 117.077 104.997 117.045 104.962 116.981L104.402 115.883C104.389 115.854 104.381 115.829 104.381 115.808C104.381 115.751 104.427 115.716 104.519 115.701C105.37 115.644 106.049 115.495 106.555 115.253C107.062 115.004 107.386 114.698 107.526 114.336C107.414 114.471 107.255 114.574 107.051 114.645C106.848 114.709 106.633 114.741 106.408 114.741C106.154 114.741 105.901 114.699 105.648 114.613C105.394 114.528 105.187 114.393 105.025 114.208C104.864 114.023 104.74 113.813 104.656 113.578C104.579 113.337 104.54 113.092 104.54 112.843C104.54 112.544 104.592 112.256 104.698 111.978C104.811 111.701 104.976 111.47 105.194 111.285C105.398 111.108 105.62 110.983 105.859 110.912C106.105 110.841 106.341 110.805 106.566 110.805C106.7 110.805 106.823 110.816 106.935 110.837C107.055 110.852 107.164 110.876 107.262 110.912L107.252 110.229H102.967C102.869 110.229 102.82 110.18 102.82 110.08V109.013C102.82 108.913 102.869 108.864 102.967 108.864H107.22L107.199 107.851V107.84C107.199 107.748 107.249 107.701 107.347 107.701H108.529C108.627 107.701 108.676 107.751 108.676 107.851L108.666 108.864H111.568C111.667 108.864 111.716 108.913 111.716 109.013V110.08C111.716 110.18 111.667 110.229 111.568 110.229H108.655V110.773L108.666 112.075C108.75 112.238 108.821 112.437 108.877 112.672C108.94 112.9 108.972 113.159 108.972 113.451C108.972 113.607 108.961 113.771 108.94 113.941C108.891 114.332 108.768 114.705 108.571 115.061C108.381 115.409 108.124 115.726 107.8 116.011C107.484 116.288 107.101 116.519 106.65 116.704C106.207 116.896 105.704 117.02 105.141 117.077H105.12ZM106.65 113.557C106.756 113.557 106.858 113.536 106.956 113.493C107.062 113.451 107.146 113.39 107.21 113.312C107.287 113.212 107.336 113.109 107.357 113.002C107.378 112.896 107.389 112.793 107.389 112.693C107.389 112.636 107.386 112.587 107.378 112.544C107.378 112.501 107.375 112.462 107.368 112.427C107.347 112.348 107.308 112.281 107.252 112.224C107.203 112.16 107.154 112.11 107.104 112.075C107.048 112.039 106.981 112.011 106.903 111.989C106.833 111.961 106.759 111.947 106.682 111.947C106.576 111.947 106.471 111.972 106.365 112.021C106.26 112.071 106.168 112.145 106.091 112.245C105.979 112.401 105.922 112.58 105.922 112.778C105.922 112.977 105.975 113.148 106.08 113.291C106.144 113.383 106.225 113.451 106.323 113.493C106.429 113.536 106.538 113.557 106.65 113.557ZM117.416 117.024C117.03 117.024 116.656 116.985 116.298 116.907C115.946 116.828 115.64 116.704 115.38 116.533C115.091 116.348 114.877 116.124 114.736 115.861C114.595 115.591 114.525 115.321 114.525 115.051C114.525 114.83 114.567 114.62 114.651 114.421C114.743 114.215 114.88 114.037 115.063 113.888C115.239 113.745 115.443 113.636 115.675 113.557C115.914 113.479 116.164 113.44 116.424 113.44C116.684 113.44 116.941 113.483 117.195 113.568C117.448 113.653 117.67 113.788 117.859 113.973C118.056 114.151 118.208 114.379 118.313 114.656C118.419 114.933 118.457 115.264 118.429 115.648C118.76 115.548 119.041 115.424 119.274 115.275C119.576 115.089 119.794 114.876 119.928 114.635C120.061 114.393 120.128 114.154 120.128 113.92C120.128 113.742 120.093 113.572 120.023 113.408C119.953 113.244 119.858 113.102 119.738 112.981C119.534 112.775 119.259 112.612 118.915 112.491C118.577 112.363 118.197 112.299 117.775 112.299C117.346 112.299 116.889 112.369 116.403 112.512C115.925 112.654 115.436 112.896 114.936 113.237C114.768 113.365 114.578 113.511 114.366 113.675C114.162 113.831 113.938 114.009 113.691 114.208C113.656 114.236 113.621 114.251 113.586 114.251C113.543 114.251 113.505 114.229 113.469 114.186L112.794 113.237C112.766 113.194 112.752 113.163 112.752 113.141C112.752 113.099 112.777 113.06 112.826 113.024C113.332 112.683 113.811 112.359 114.261 112.053C114.718 111.74 115.151 111.445 115.559 111.168C115.974 110.884 116.372 110.609 116.751 110.347C117.131 110.084 117.504 109.824 117.87 109.568C117.279 109.582 116.684 109.6 116.087 109.621C115.496 109.636 114.922 109.649 114.366 109.664C114.268 109.664 114.219 109.614 114.219 109.515L114.208 108.427C114.208 108.327 114.257 108.277 114.356 108.277H120.149C120.248 108.277 120.297 108.327 120.297 108.427L120.308 109.344C120.308 109.422 120.276 109.483 120.213 109.525L117.49 111.317C117.821 111.253 118.144 111.221 118.461 111.221C118.883 111.221 119.277 111.278 119.643 111.392C120.016 111.505 120.346 111.676 120.635 111.904C120.937 112.153 121.166 112.448 121.321 112.789C121.475 113.124 121.553 113.479 121.553 113.856C121.553 114.097 121.518 114.343 121.447 114.592C121.377 114.841 121.272 115.083 121.131 115.317C120.99 115.545 120.811 115.761 120.593 115.968C120.382 116.167 120.128 116.345 119.833 116.501C119.502 116.665 119.126 116.793 118.704 116.885C118.282 116.977 117.853 117.024 117.416 117.024ZM117.152 115.829C117.18 115.723 117.195 115.612 117.195 115.499C117.195 115.335 117.167 115.193 117.11 115.072C117.061 114.944 116.994 114.833 116.91 114.741C116.825 114.649 116.73 114.581 116.625 114.539C116.519 114.489 116.414 114.464 116.308 114.464C116.154 114.464 116.027 114.503 115.928 114.581C115.802 114.673 115.738 114.801 115.738 114.965C115.738 115.051 115.759 115.136 115.802 115.221C115.844 115.307 115.904 115.381 115.981 115.445C116.115 115.573 116.283 115.669 116.488 115.733C116.692 115.79 116.913 115.822 117.152 115.829Z" fill="black"/>
<path d="M154.453 119.226C154.681 118.954 154.889 118.667 155.077 118.366C155.292 118.065 155.441 117.723 155.517 117.362C155.555 117.057 155.512 116.748 155.393 116.464C155.274 116.18 155.083 115.932 154.838 115.745C154.556 115.524 154.216 115.388 153.858 115.353C153.5 115.317 153.14 115.384 152.82 115.545C152.335 115.784 151.947 116.177 151.601 116.589C151.285 116.947 151.023 117.348 150.819 117.779C150.616 118.212 150.543 118.695 150.611 119.168C150.635 119.373 150.701 119.572 150.805 119.752C150.909 119.931 151.047 120.089 151.213 120.213C151.379 120.339 151.569 120.43 151.77 120.481C151.972 120.532 152.183 120.542 152.389 120.51C152.737 120.464 153.071 120.345 153.371 120.163C153.782 119.913 154.147 119.596 154.453 119.226Z" fill="white"/>
<path d="M154.453 109.996C154.681 109.724 154.889 109.437 155.077 109.136C155.292 108.834 155.441 108.493 155.517 108.132C155.555 107.826 155.512 107.517 155.393 107.233C155.274 106.95 155.083 106.702 154.838 106.514C154.556 106.294 154.216 106.158 153.858 106.122C153.5 106.087 153.14 106.153 152.82 106.314C152.335 106.553 151.947 106.947 151.601 107.359C151.285 107.717 151.023 108.117 150.819 108.548C150.616 108.982 150.543 109.464 150.611 109.938C150.635 110.143 150.702 110.342 150.805 110.521C150.909 110.701 151.047 110.858 151.213 110.983C151.379 111.109 151.569 111.199 151.77 111.25C151.972 111.301 152.183 111.311 152.389 111.28C152.737 111.233 153.071 111.115 153.371 110.932C153.782 110.682 154.147 110.366 154.453 109.996Z" fill="white"/>
<path d="M154.453 115.058C154.681 114.786 154.889 114.499 155.077 114.198C155.292 113.897 155.441 113.555 155.517 113.194C155.555 112.889 155.512 112.58 155.393 112.296C155.274 112.013 155.083 111.765 154.838 111.576C154.556 111.356 154.216 111.22 153.858 111.185C153.5 111.15 153.14 111.216 152.82 111.377C152.335 111.615 151.947 112.009 151.601 112.422C151.285 112.78 151.023 113.18 150.819 113.611C150.616 114.044 150.543 114.527 150.611 115C150.635 115.206 150.701 115.404 150.805 115.584C150.909 115.763 151.047 115.92 151.213 116.046C151.379 116.171 151.569 116.262 151.77 116.313C151.972 116.364 152.183 116.374 152.389 116.342C152.737 116.296 153.071 116.177 153.371 115.995C153.782 115.745 154.147 115.429 154.453 115.058Z" fill="white"/>
<path d="M151.742 100.451C151.514 100.723 151.305 101.01 151.117 101.311C150.903 101.612 150.753 101.954 150.677 102.315C150.639 102.62 150.682 102.929 150.802 103.212C150.921 103.496 151.112 103.744 151.356 103.932C151.639 104.153 151.979 104.288 152.336 104.323C152.694 104.359 153.054 104.292 153.375 104.132C153.86 103.893 154.841 102.991 155.187 102.578C155.533 102.14 155.841 101.673 156.108 101.183C156.326 100.731 156.394 100.222 156.303 99.7293C156.268 99.5037 156.183 99.2882 156.053 99.0999C155.923 98.9117 155.752 98.7549 155.552 98.6413C155.243 98.4722 154.887 98.4061 154.538 98.4514C154.189 98.4983 153.855 98.6167 153.556 98.7991C153.14 99.0429 152.054 100.084 151.742 100.451Z" fill="white"/>
<path d="M131.885 127.635C130.952 125.725 131.461 123.384 131.362 121.205C131.22 118.056 130.994 115.188 130.413 110.437C130.297 109.487 130.22 108.536 130.668 107.689C131.117 106.842 132.117 106.518 133.048 106.767C133.889 106.992 134.394 107.512 134.714 108.317L150.225 124.628C148.147 126.656 145.833 128.433 143.333 129.921L131.885 127.635Z" fill="white"/>
<path d="M152.923 95.9238L134.197 95.9254C134.197 100.091 134.197 118.16 134.197 122.67C134.233 122.67 134.253 122.67 134.253 122.67L153.467 122.669C153.467 118.156 153.467 100.088 153.467 95.9244L152.923 95.9238Z" fill="#F2F2F2"/>
<path d="M165.566 137.399C163.392 137.214 160.685 136.643 158.771 135.369C157.97 134.837 156.17 132.859 154.175 130.936C153.565 130.348 153.236 129.664 153.473 128.854C153.541 128.624 153.668 128.416 153.84 128.248C154.012 128.08 154.224 127.958 154.456 127.894C154.822 127.788 155.198 127.724 155.578 127.705L155.653 127.699C154.03 125.58 151.57 122.364 149.911 120.225C149.312 119.452 148.843 117.851 149.921 117.028C150.966 116.229 152.03 116.835 152.806 117.689C154.04 119.046 156.734 122.303 158.007 123.689C157.939 122.912 158.353 122.161 159.33 121.818C160.093 121.55 160.927 121.782 161.275 122.454C161.058 121.757 161.448 120.896 162.284 120.51C163.121 120.124 164.145 120.214 164.581 120.928C164.501 120.255 165.115 119.727 165.717 119.514C166.366 119.284 167.341 119.486 168.052 120.328C169.436 121.966 170.557 123.692 171.531 125.183C172.952 127.361 173.919 129.005 174.434 129.931L165.566 137.399Z" fill="white"/>
<path d="M151.797 122.668C145.886 122.668 138.927 122.668 134.197 122.669V123.694C134.197 124.034 134.264 124.371 134.395 124.686C134.527 125 134.719 125.286 134.962 125.527C135.204 125.767 135.492 125.958 135.809 126.088C136.127 126.218 136.466 126.286 136.809 126.286H150.854C151.383 126.286 151.899 126.126 152.335 125.828C152.77 125.53 153.104 125.108 153.292 124.618C152.795 123.968 152.288 123.308 151.797 122.668Z" fill="#F2F2F2"/>
<path d="M153.467 95.0647C153.467 94.7244 153.4 94.3873 153.268 94.0727C153.137 93.758 152.944 93.4721 152.701 93.2316C152.459 92.9911 152.171 92.8001 151.854 92.6695C151.537 92.5393 151.198 92.4727 150.854 92.4727H136.809C136.466 92.4727 136.127 92.5393 135.809 92.6695C135.492 92.8001 135.204 92.9911 134.962 93.2316C134.719 93.4721 134.527 93.758 134.395 94.0727C134.264 94.3873 134.197 94.7244 134.197 95.0647V95.9249L153.467 95.9244V95.0647Z" fill="#F2F2F2"/>
<path d="M143.849 103.486C140.348 103.486 137.928 106.176 137.928 109.324C137.928 112.846 140.4 115.272 143.849 115.272C147.43 115.272 149.769 112.824 149.769 109.324C149.769 106.155 147.336 103.486 143.849 103.486ZM147.231 108.33C146.094 109.485 144.943 110.627 143.78 111.756C143.632 111.898 143.435 111.977 143.229 111.977C143.023 111.977 142.826 111.898 142.678 111.756C142.115 111.196 141.564 110.625 141 110.066C140.928 109.994 140.869 109.909 140.828 109.815C140.789 109.72 140.768 109.62 140.768 109.518C140.768 109.415 140.787 109.315 140.827 109.22C140.866 109.126 140.923 109.04 140.996 108.968C141.069 108.896 141.156 108.838 141.251 108.8C141.345 108.761 141.447 108.741 141.55 108.741C141.653 108.742 141.754 108.763 141.849 108.802C141.944 108.842 142.03 108.9 142.102 108.972C142.483 109.35 142.859 109.733 143.236 110.114C144.208 109.163 145.172 108.204 146.129 107.237C146.202 107.165 146.287 107.108 146.382 107.069C146.476 107.03 146.578 107.01 146.68 107.01C146.782 107.01 146.883 107.03 146.978 107.069C147.073 107.108 147.159 107.165 147.231 107.237C147.304 107.308 147.361 107.394 147.4 107.487C147.439 107.581 147.459 107.682 147.459 107.783C147.459 107.885 147.439 107.986 147.4 108.079C147.361 108.173 147.304 108.258 147.231 108.33Z" fill="#FF8C00"/>
<path d="M143.487 130.183C145.301 129.106 147.017 127.874 148.616 126.501C148.915 126.245 148.48 125.818 148.183 126.072C146.623 127.41 144.948 128.61 143.179 129.659C142.84 129.859 143.147 130.384 143.487 130.183Z" fill="#211715"/>
<path d="M132.149 127.483C131.421 125.971 131.62 124.204 131.669 122.583C131.71 121.187 131.606 119.787 131.511 118.393C131.414 116.979 131.289 115.567 131.142 114.158C131.056 113.321 130.964 112.486 130.865 111.651C130.759 110.75 130.574 109.823 130.641 108.914C130.7 108.116 131.059 107.315 131.883 107.069C132.254 106.966 132.645 106.967 133.016 107.072C133.386 107.177 133.719 107.382 133.98 107.664C134.244 107.955 134.676 107.524 134.412 107.235C133.336 106.056 131.141 106.068 130.378 107.587C129.957 108.424 129.982 109.361 130.087 110.267C130.196 111.216 130.315 112.163 130.419 113.112C130.588 114.644 130.736 116.179 130.85 117.716C130.9 118.383 130.944 119.052 130.981 119.72C131.022 120.452 131.072 121.186 131.069 121.919C131.061 123.88 130.737 125.953 131.62 127.789C131.662 127.858 131.729 127.908 131.807 127.928C131.886 127.949 131.969 127.938 132.039 127.898C132.108 127.856 132.158 127.79 132.179 127.712C132.199 127.635 132.188 127.552 132.149 127.483Z" fill="#211715"/>
<path d="M154.516 119.614C154.901 119.195 155.236 118.732 155.512 118.236C155.789 117.783 155.889 117.245 155.794 116.724C155.579 115.676 154.529 114.95 153.467 115.053C153.386 115.055 153.309 115.087 153.252 115.144C153.195 115.2 153.163 115.276 153.16 115.356C153.161 115.437 153.193 115.513 153.25 115.57C153.307 115.627 153.385 115.66 153.467 115.66C154.286 115.581 155.08 116.102 155.213 116.932C155.276 117.327 155.126 117.69 154.928 118.025C154.689 118.44 154.406 118.829 154.084 119.185C153.818 119.473 154.249 119.903 154.516 119.615V119.614Z" fill="#211715"/>
<path d="M153.621 111.134C154.047 110.857 154.426 110.515 154.744 110.12C155.086 109.718 155.379 109.278 155.614 108.807C155.825 108.392 155.886 107.919 155.788 107.465C155.689 107.011 155.436 106.604 155.072 106.313C154.621 105.95 154.046 105.773 153.467 105.82C153.386 105.822 153.309 105.855 153.252 105.912C153.195 105.968 153.163 106.044 153.16 106.124C153.161 106.204 153.193 106.281 153.25 106.338C153.307 106.395 153.385 106.427 153.467 106.427C154.395 106.34 155.338 107.066 155.221 108.051C155.159 108.57 154.781 109.062 154.48 109.471C154.165 109.919 153.769 110.304 153.311 110.609C152.982 110.821 153.289 111.347 153.621 111.134Z" fill="#211715"/>
<path d="M153.466 111.488C154.394 111.399 155.331 112.124 155.221 113.105C155.163 113.617 154.792 114.101 154.497 114.506C154.179 114.965 153.777 115.359 153.312 115.67C152.981 115.88 153.288 116.406 153.621 116.194C154.056 115.912 154.442 115.561 154.763 115.157C155.104 114.755 155.393 114.314 155.626 113.842C155.836 113.413 155.888 112.925 155.773 112.461C155.663 112.034 155.417 111.653 155.073 111.374C154.622 111.01 154.046 110.833 153.466 110.881C153.386 110.883 153.31 110.915 153.253 110.972C153.196 111.029 153.163 111.104 153.161 111.184C153.161 111.265 153.193 111.342 153.251 111.399C153.308 111.455 153.386 111.488 153.466 111.488Z" fill="#211715"/>
<path d="M153.621 99.1176C154.109 98.795 154.795 98.5864 155.349 98.876C155.828 99.1272 156.023 99.6019 156.033 100.12C156.044 100.396 155.997 100.671 155.895 100.927C155.767 101.192 155.618 101.447 155.45 101.688C155.193 102.094 154.891 102.469 154.548 102.806C154.177 103.191 153.762 103.531 153.311 103.819C152.973 104.018 153.28 104.543 153.621 104.343C154.099 104.04 154.54 103.683 154.934 103.279C155.345 102.88 155.705 102.434 156.007 101.95C156.203 101.665 156.37 101.361 156.503 101.043C156.617 100.714 156.664 100.366 156.641 100.02C156.605 99.3603 156.326 98.7582 155.748 98.4024C154.995 97.9411 154.015 98.1294 153.312 98.5934C152.986 98.8088 153.291 99.3352 153.621 99.1176Z" fill="#211715"/>
<path d="M153.772 118.435V95.5083C153.785 95.1776 153.766 94.8464 153.719 94.519C153.47 93.1558 152.218 92.1776 150.84 92.1691C149.674 92.1622 148.509 92.1691 147.343 92.1691H136.944C136.699 92.1654 136.453 92.1862 136.211 92.2304C135.553 92.3675 134.963 92.7259 134.539 93.2448C134.117 93.7643 133.887 94.4123 133.889 95.08C133.889 95.2075 133.889 95.335 133.889 95.4624V123.3C133.889 123.905 133.933 124.484 134.223 125.039C134.746 126.038 135.795 126.591 136.909 126.591H150.656C151.183 126.607 151.706 126.499 152.182 126.274C152.514 126.107 152.81 125.877 153.053 125.597C153.173 125.46 153.28 125.312 153.374 125.156C153.461 125.007 153.6 124.794 153.6 124.62C153.6 124.229 152.987 124.228 152.987 124.62C152.987 124.537 152.965 124.628 152.955 124.642C152.93 124.679 152.913 124.727 152.892 124.768C152.847 124.851 152.797 124.931 152.745 125.007C152.433 125.447 151.978 125.765 151.455 125.905C151.074 126.007 150.678 125.984 150.286 125.984H138.305C137.826 125.984 137.345 125.984 136.865 125.984C136.321 125.991 135.79 125.809 135.366 125.47C134.942 125.131 134.651 124.655 134.542 124.125C134.495 123.781 134.481 123.433 134.502 123.085V95.4246C134.502 95.3078 134.501 95.1915 134.502 95.0752C134.5 94.5259 134.697 93.9942 135.056 93.5766C135.274 93.327 135.543 93.127 135.845 92.9888C136.148 92.8507 136.476 92.7787 136.808 92.7766C136.89 92.7766 136.971 92.7766 137.054 92.7766H149.891C150.211 92.7766 150.531 92.7739 150.85 92.7766C151.463 92.7824 152.048 93.0262 152.479 93.4566C152.911 93.8864 153.156 94.4678 153.16 95.0752C153.169 96.392 153.16 97.7094 153.16 99.0262V118.435C153.16 118.826 153.772 118.827 153.772 118.435Z" fill="#211715"/>
<path d="M157.394 129.471C156.599 128.445 155.814 127.412 155.026 126.383C153.853 124.851 152.679 123.321 151.504 121.792C151.228 121.434 150.952 121.076 150.676 120.719C150.423 120.42 150.19 120.106 149.978 119.778C149.606 119.143 149.384 118.245 149.807 117.589C149.937 117.393 150.114 117.233 150.323 117.123C150.531 117.013 150.765 116.957 151 116.96C151.502 116.977 151.956 117.291 152.31 117.62C152.589 117.894 152.854 118.182 153.103 118.482C153.377 118.795 153.649 119.109 153.919 119.425C155.098 120.797 156.254 122.189 157.459 123.538C157.568 123.661 157.679 123.784 157.79 123.906C158.056 124.195 158.488 123.764 158.223 123.476C157 122.144 155.849 120.745 154.673 119.371C154.141 118.749 153.61 118.124 153.06 117.517C152.297 116.676 151.157 115.983 150.032 116.594C149.573 116.838 149.226 117.249 149.068 117.741C148.943 118.184 148.938 118.651 149.052 119.097C149.148 119.512 149.321 119.907 149.56 120.26C149.799 120.609 150.076 120.935 150.334 121.269C151.547 122.839 152.755 124.411 153.959 125.987C154.87 127.177 155.781 128.367 156.694 129.556C156.75 129.63 156.807 129.704 156.864 129.778C156.907 129.845 156.974 129.894 157.052 129.914C157.13 129.935 157.212 129.924 157.283 129.887C157.353 129.845 157.403 129.779 157.424 129.701C157.444 129.624 157.433 129.541 157.393 129.471L157.394 129.471Z" fill="#211715"/>
<path d="M165.566 137.096C164.369 136.998 163.184 136.787 162.026 136.465C160.909 136.149 159.78 135.719 158.831 135.042C158.812 135.031 158.795 135.017 158.779 135.003C158.746 134.976 158.712 134.95 158.679 134.922C158.605 134.861 158.533 134.798 158.461 134.735C158.288 134.583 158.12 134.425 157.955 134.265C157.533 133.86 157.121 133.444 156.709 133.03C156.218 132.534 155.728 132.036 155.231 131.545C154.968 131.283 154.703 131.024 154.435 130.765C154.218 130.566 154.033 130.335 153.886 130.08C153.622 129.591 153.618 128.907 154.026 128.491C154.408 128.101 155.038 128.053 155.578 128.009C155.658 128.008 155.734 127.975 155.791 127.919C155.848 127.862 155.882 127.786 155.883 127.706C155.883 127.625 155.85 127.548 155.793 127.492C155.736 127.435 155.658 127.403 155.578 127.402C155.016 127.447 154.365 127.504 153.884 127.826C153.623 128.005 153.414 128.248 153.275 128.53C153.137 128.812 153.073 129.125 153.091 129.439C153.116 130.093 153.464 130.661 153.92 131.114C154.473 131.663 155.032 132.204 155.581 132.757C156.423 133.605 157.242 134.494 158.152 135.272C159.038 136.029 160.162 136.507 161.262 136.868C162.66 137.311 164.104 137.591 165.566 137.704C165.648 137.703 165.725 137.671 165.783 137.614C165.84 137.557 165.872 137.48 165.873 137.4C165.871 137.32 165.838 137.243 165.781 137.187C165.724 137.13 165.647 137.098 165.566 137.096Z" fill="#211715"/>
<path d="M158.313 123.688C158.262 123.012 158.624 122.463 159.249 122.175C159.865 121.891 160.666 121.964 161.012 122.607C161.175 122.91 161.668 122.703 161.571 122.373C161.375 121.705 161.834 121.037 162.461 120.762C163.052 120.502 163.931 120.471 164.318 121.08C164.467 121.315 164.918 121.245 164.888 120.927C164.844 120.47 165.168 120.131 165.547 119.922C165.865 119.738 166.24 119.682 166.599 119.763C167.069 119.874 167.491 120.133 167.802 120.502C168.214 120.97 168.594 121.47 168.967 121.97C169.67 122.915 170.325 123.896 170.971 124.881C171.606 125.854 172.234 126.831 172.841 127.821C173.298 128.568 173.745 129.319 174.171 130.083C174.361 130.424 174.89 130.119 174.698 129.776C173.712 128.006 172.622 126.293 171.513 124.597C170.82 123.537 170.116 122.485 169.352 121.473C169.15 121.205 168.944 120.94 168.734 120.678C168.534 120.412 168.319 120.159 168.09 119.918C167.711 119.537 167.229 119.274 166.7 119.166C166.17 119.061 165.619 119.16 165.16 119.443C164.642 119.757 164.215 120.295 164.275 120.927L164.846 120.774C164.278 119.879 163.091 119.83 162.195 120.218C161.315 120.6 160.701 121.58 160.981 122.534L161.54 122.3C161.049 121.39 159.921 121.229 159.031 121.61C158.191 121.97 157.63 122.765 157.701 123.688C157.704 123.768 157.736 123.843 157.793 123.9C157.85 123.957 157.927 123.99 158.008 123.991C158.089 123.991 158.166 123.959 158.223 123.902C158.281 123.845 158.313 123.768 158.313 123.688Z" fill="#211715"/>
<path d="M95.3159 147.467H9.16474C7.76595 147.467 6.63203 148.613 6.63203 150.028V204.689C6.63203 206.104 7.76595 207.25 9.16474 207.25H95.3159C96.7147 207.25 97.8486 206.104 97.8486 204.689V150.028C97.8486 148.613 96.7147 147.467 95.3159 147.467Z" fill="white"/>
<path d="M52.2404 181.08C57.8574 181.08 62.4104 176.475 62.4104 170.795C62.4104 165.116 57.8574 160.512 52.2404 160.512C46.6234 160.512 42.07 165.116 42.07 170.795C42.07 176.475 46.6234 181.08 52.2404 181.08Z" fill="#FF8C00" stroke="black"/>
<path d="M52.345 173.276C52.1434 173.288 51.9444 173.226 51.7861 173.099C51.7109 173.033 51.6502 172.951 51.6076 172.86C51.4611 172.542 51.4466 171.989 51.567 171.303C51.722 170.42 52.1765 170.035 52.7028 169.589C52.8258 169.484 52.9533 169.376 53.079 169.258C53.2049 169.149 53.3045 169.012 53.3701 168.857C53.4357 168.703 53.4658 168.535 53.4579 168.367C53.45 168.212 53.4084 168.061 53.3358 167.924C53.2633 167.786 53.1617 167.668 53.0384 167.575C52.8167 167.4 52.5429 167.306 52.2617 167.309C51.9828 167.305 51.7111 167.4 51.493 167.575C51.1437 167.842 50.9333 168.214 50.774 168.542C50.7058 168.684 50.5893 168.797 50.4457 168.86C50.3328 168.906 50.2119 168.929 50.0902 168.928C49.9576 168.93 49.8263 168.901 49.7059 168.846C49.4021 168.7 49.2666 168.429 49.2913 168.016C49.325 167.561 49.4904 167.127 49.7671 166.768C50.318 166.041 51.335 165.573 52.3584 165.573C52.7544 165.566 53.1475 165.641 53.5142 165.792C53.8809 165.944 54.2134 166.169 54.4921 166.454C55.0013 166.989 55.2804 167.705 55.2693 168.448C55.2672 168.77 55.2013 169.088 55.0751 169.384C54.9485 169.68 54.7649 169.946 54.5343 170.169C54.243 170.445 54.0127 170.636 53.8094 170.804C53.6893 170.903 53.5857 170.989 53.4869 171.078C53.2437 171.301 53.0961 171.612 53.0753 171.943L53.0698 172.077C53.066 172.28 53.0498 172.483 53.0215 172.684C52.9924 172.835 52.9213 172.975 52.8165 173.086C52.7542 173.148 52.6805 173.196 52.5995 173.228C52.5185 173.261 52.432 173.277 52.345 173.276Z" fill="white"/>
<path d="M52.2823 176.102C52.1421 176.104 52.0035 176.072 51.8783 176.007C51.7531 175.944 51.6449 175.85 51.5634 175.735C51.4623 175.573 51.4154 175.383 51.4299 175.192C51.4443 175.001 51.5193 174.82 51.6435 174.676C51.722 174.595 51.8157 174.533 51.9192 174.491C52.0226 174.448 52.1334 174.427 52.245 174.43H52.2629C52.3797 174.43 52.7753 174.454 52.9926 174.775C53.103 174.951 53.1482 175.161 53.1202 175.368C53.0923 175.574 52.9931 175.764 52.8401 175.904C52.6833 176.035 52.4856 176.105 52.2823 176.102Z" fill="white"/>
<path d="M52.345 173.057C52.1514 173.055 51.9666 173.013 51.8478 172.846C51.7686 172.715 51.7228 172.565 51.7145 172.411C51.6718 171.95 51.7179 171.483 51.8503 171.039C51.9567 170.7 52.1462 170.393 52.401 170.148C52.6954 169.854 53.0584 169.623 53.3323 169.309C53.4866 169.138 53.5935 168.928 53.6422 168.702C53.6909 168.475 53.6797 168.24 53.6097 168.019C53.5308 167.798 53.3983 167.601 53.2243 167.447C53.0502 167.292 52.8403 167.184 52.614 167.132C52.3812 167.078 52.1391 167.08 51.9074 167.139C51.6756 167.197 51.4608 167.31 51.2805 167.469C51.0994 167.625 50.943 167.809 50.8169 168.014C50.7156 168.173 50.6488 168.355 50.5432 168.509C50.3497 168.792 49.7994 168.774 49.6016 168.49C49.5181 168.347 49.4846 168.179 49.5068 168.015C49.522 167.785 49.578 167.56 49.6721 167.351C50.0327 166.541 50.8392 166.044 51.6741 165.862C52.418 165.686 53.2002 165.811 53.8545 166.209C54.2298 166.449 54.5374 166.783 54.7474 167.178C54.9575 167.573 55.063 168.017 55.0535 168.465C55.044 168.892 54.9142 169.308 54.6799 169.663C54.4409 170.022 54.0772 170.3 53.7491 170.572C53.5669 170.709 53.3956 170.86 53.2369 171.023C53.0876 171.192 52.9771 171.393 52.9132 171.612C52.8726 171.777 52.8522 171.948 52.8525 172.118C52.8441 172.326 52.8574 172.572 52.7723 172.767C52.7378 172.853 52.6787 172.927 52.6024 172.979C52.5261 173.03 52.4368 173.058 52.345 173.057C52.0681 173.064 52.0662 173.501 52.3445 173.493C52.4718 173.494 52.5978 173.467 52.7136 173.413C52.8296 173.36 52.9327 173.282 53.016 173.185C53.1845 172.976 53.2371 172.745 53.2618 172.483C53.2798 172.292 53.2762 172.099 53.2927 171.908C53.3142 171.701 53.397 171.504 53.5303 171.344C53.6908 171.174 53.866 171.02 54.0538 170.881C54.2369 170.729 54.4171 170.574 54.5918 170.411C54.9522 170.088 55.2202 169.672 55.3669 169.208C55.6571 168.259 55.3986 167.181 54.7654 166.432C54.4752 166.1 54.1198 165.833 53.7219 165.647C53.3239 165.462 52.8921 165.362 52.4539 165.355C51.5257 165.328 50.5555 165.667 49.8785 166.318C49.5092 166.67 49.2496 167.123 49.1317 167.621C49.0351 168.051 49.0257 168.581 49.3873 168.892C49.7686 169.221 50.418 169.245 50.7891 168.885C50.9327 168.745 51.0021 168.556 51.099 168.384C51.2113 168.176 51.3562 167.988 51.5278 167.827C51.6906 167.67 51.8978 167.569 52.1203 167.538C52.3428 167.507 52.5693 167.547 52.768 167.653C52.9528 167.749 53.0977 167.908 53.1761 168.102C53.2546 168.296 53.2615 168.513 53.1955 168.711C53.1204 168.938 52.9426 169.094 52.7691 169.246C52.6013 169.393 52.428 169.533 52.2622 169.683C51.9678 169.934 51.7284 170.243 51.5595 170.593C51.3628 171.069 51.2645 171.581 51.271 172.097C51.2665 172.522 51.3248 173.007 51.6779 173.288C51.8717 173.429 52.1063 173.501 52.345 173.493C52.6224 173.496 52.6225 173.061 52.345 173.057Z" fill="white"/>
<path d="M52.2823 175.882C52.1283 175.884 51.9781 175.833 51.8566 175.738C51.865 175.744 51.8746 175.753 51.844 175.726C51.8289 175.712 51.8144 175.698 51.8003 175.683C51.7813 175.665 51.7642 175.646 51.7494 175.624C51.6989 175.545 51.6651 175.457 51.6506 175.365C51.6314 175.231 51.65 175.094 51.7044 174.971C51.7569 174.851 51.852 174.754 51.9711 174.701C52.0818 174.656 52.2017 174.637 52.3208 174.648C52.3423 174.649 52.3637 174.653 52.3852 174.654C52.3197 174.649 52.4032 174.657 52.4205 174.661C52.4808 174.672 52.5399 174.691 52.5967 174.714C52.5543 174.696 52.6152 174.725 52.6185 174.727C52.6307 174.733 52.6428 174.739 52.6544 174.747C52.6724 174.758 52.6902 174.769 52.7082 174.782C52.7007 174.776 52.6828 174.759 52.7165 174.789C52.7743 174.834 52.8207 174.893 52.8527 174.96C52.8773 175.01 52.8947 175.064 52.9041 175.119C52.9041 175.119 52.9131 175.192 52.9095 175.15C52.9109 175.165 52.9122 175.18 52.9129 175.194C52.915 175.24 52.9138 175.285 52.9094 175.33C52.9125 175.297 52.9094 175.334 52.908 175.339C52.9024 175.369 52.8963 175.398 52.8883 175.427C52.8843 175.442 52.88 175.457 52.8753 175.471C52.8747 175.473 52.8514 175.535 52.8647 175.503C52.8355 175.577 52.7921 175.645 52.737 175.702C52.6768 175.76 52.6056 175.807 52.5274 175.838C52.4494 175.869 52.3662 175.883 52.2823 175.882C52.0053 175.886 52.0043 176.321 52.2822 176.317C52.513 176.32 52.7382 176.245 52.9229 176.106C53.1075 175.966 53.2414 175.768 53.3038 175.543C53.3658 175.334 53.3609 175.11 53.29 174.904C53.2189 174.697 53.0853 174.519 52.9081 174.393C52.7612 174.302 52.5968 174.242 52.4256 174.219C52.2545 174.197 52.0806 174.21 51.9152 174.261C51.7002 174.331 51.5145 174.472 51.3875 174.661C51.2604 174.85 51.1993 175.077 51.2136 175.305C51.2178 175.444 51.2496 175.581 51.3072 175.708C51.3648 175.834 51.4469 175.948 51.5487 176.042C51.7533 176.218 52.0134 176.316 52.2827 176.318C52.5598 176.321 52.5598 175.886 52.2823 175.882Z" fill="white"/>
<path d="M33.7181 192.079C33.6801 192.079 33.6535 192.06 33.6383 192.021L33.4047 191.388C33.4009 191.377 33.399 191.363 33.399 191.348C33.399 191.317 33.4199 191.298 33.4617 191.29C33.9973 191.225 34.4589 191.108 34.8464 190.939C35.2377 190.766 35.572 190.549 35.8494 190.288C36.1305 190.026 36.366 189.723 36.556 189.377C36.7459 189.032 36.9093 188.651 37.0461 188.236C37.0574 188.198 37.0764 188.179 37.103 188.179C37.1182 188.179 37.1334 188.184 37.1486 188.196L37.7071 188.547C37.7489 188.571 37.7622 188.601 37.747 188.64C37.6064 189.081 37.4241 189.494 37.1999 189.879C36.9796 190.259 36.7079 190.599 36.385 190.898C36.0621 191.194 35.6822 191.444 35.2453 191.647C34.8084 191.851 34.305 191.995 33.7352 192.079H33.7181ZM34.3677 190.08C34.3563 190.08 34.3392 190.072 34.3164 190.057C34.1455 189.922 33.9441 189.796 33.7124 189.677C33.4845 189.554 33.2603 189.454 33.04 189.377C33.0058 189.365 32.9887 189.346 32.9887 189.32C32.9887 189.312 32.9925 189.297 33.0001 189.273L33.3021 188.766C33.3249 188.724 33.3591 188.708 33.4047 188.72C33.6364 188.785 33.8739 188.88 34.117 189.003C34.3601 189.121 34.5729 189.252 34.7552 189.394C34.778 189.409 34.7894 189.431 34.7894 189.457C34.7894 189.469 34.7837 189.484 34.7723 189.504L34.4247 190.04C34.4057 190.066 34.3867 190.08 34.3677 190.08ZM35.08 188.818C35.0687 188.818 35.0516 188.811 35.0288 188.795C34.9414 188.726 34.8445 188.659 34.7381 188.593C34.6318 188.528 34.5216 188.465 34.4076 188.403C34.2936 188.342 34.1778 188.286 34.06 188.236C33.9422 188.187 33.8264 188.141 33.7124 188.103C33.6782 188.092 33.6611 188.073 33.6611 188.045C33.6611 188.026 33.6649 188.011 33.6725 188L33.9802 187.516C34.003 187.474 34.0372 187.46 34.0828 187.476C34.3487 187.553 34.5995 187.65 34.835 187.77C35.0706 187.885 35.2871 188.019 35.4846 188.173C35.5074 188.188 35.5188 188.208 35.5188 188.231C35.5188 188.25 35.5112 188.267 35.496 188.283L35.137 188.778C35.118 188.804 35.099 188.818 35.08 188.818ZM36.9435 188.208C36.9093 188.208 36.8865 188.188 36.8751 188.149C36.8257 188.019 36.7649 187.881 36.6927 187.735C36.6244 187.585 36.5446 187.449 36.4534 187.325C36.4382 187.31 36.4306 187.293 36.4306 187.274C36.4306 187.251 36.4477 187.233 36.4819 187.222L36.7896 187.113C36.801 187.108 36.8143 187.107 36.8295 187.107C36.8599 187.107 36.8827 187.118 36.8979 187.141C37.0005 187.265 37.0935 187.399 37.1771 187.545C37.2607 187.687 37.3272 187.827 37.3766 187.965C37.3804 187.973 37.3823 187.983 37.3823 187.994C37.3823 188.029 37.3652 188.052 37.331 188.063L36.9777 188.196C36.9625 188.203 36.9511 188.208 36.9435 188.208ZM37.6444 187.948C37.614 187.948 37.5931 187.929 37.5817 187.89C37.5323 187.764 37.4696 187.627 37.3937 187.482C37.3177 187.335 37.236 187.204 37.1486 187.089C37.1334 187.066 37.1258 187.049 37.1258 187.037C37.1258 187.015 37.1429 186.997 37.1771 186.986L37.4848 186.876C37.4962 186.873 37.5095 186.871 37.5247 186.871C37.5551 186.871 37.5779 186.882 37.5931 186.905C37.6805 187.009 37.7679 187.133 37.8552 187.28C37.9464 187.421 38.0205 187.562 38.0775 187.7C38.0851 187.723 38.0889 187.737 38.0889 187.741C38.0889 187.771 38.0699 187.793 38.0319 187.804L37.6843 187.943L37.6444 187.948ZM42.3124 192.183C42.282 192.183 42.2611 192.164 42.2497 192.125C42.2193 192.01 42.1852 191.897 42.1472 191.786C42.113 191.674 42.075 191.565 42.0332 191.457C41.395 191.58 40.7586 191.69 40.1242 191.786C39.4897 191.882 38.8971 191.964 38.3462 192.034H38.3291C38.2873 192.034 38.2607 192.01 38.2493 191.964L38.1012 191.296C38.0974 191.289 38.0955 191.279 38.0955 191.267C38.0955 191.228 38.1183 191.208 38.1639 191.204L38.671 191.157C38.8116 190.816 38.9427 190.478 39.0642 190.143C39.1858 189.81 39.2941 189.486 39.3891 189.176C39.4878 188.86 39.5752 188.561 39.6512 188.276C39.7272 187.988 39.7899 187.722 39.8392 187.476C39.8468 187.425 39.8772 187.404 39.9304 187.412L40.6826 187.522C40.7396 187.53 40.7624 187.559 40.751 187.608C40.6864 187.85 40.6105 188.117 40.5231 188.409C40.4357 188.697 40.3407 188.993 40.2381 189.297C40.1394 189.6 40.033 189.903 39.919 190.207C39.8051 190.507 39.6911 190.791 39.5771 191.06C39.976 191.013 40.3578 190.965 40.7225 190.916C41.091 190.866 41.4234 190.816 41.7198 190.766C41.4842 190.32 41.205 189.903 40.8821 189.515C40.8669 189.496 40.8593 189.476 40.8593 189.457C40.8593 189.438 40.8745 189.419 40.9049 189.4L41.5032 189.135C41.5146 189.128 41.5298 189.124 41.5488 189.124C41.5754 189.124 41.5963 189.135 41.6115 189.158C41.7673 189.35 41.9173 189.552 42.0617 189.763C42.206 189.975 42.3409 190.192 42.4663 190.415C42.5917 190.637 42.7037 190.864 42.8025 191.094C42.9013 191.321 42.9848 191.548 43.0532 191.775C43.057 191.781 43.0589 191.791 43.0589 191.803C43.0589 191.834 43.0418 191.858 43.0076 191.877L42.3523 192.172C42.3371 192.179 42.3238 192.183 42.3124 192.183ZM45.0477 192.178C44.9945 192.178 44.9679 192.151 44.9679 192.097V187.464C44.9679 187.41 44.9945 187.383 45.0477 187.383H45.7202C45.7733 187.383 45.7999 187.41 45.7999 187.464V188.985C46.0203 189.024 46.2425 189.072 46.4667 189.129C46.6946 189.183 46.9188 189.243 47.1391 189.308C47.3632 189.373 47.5798 189.444 47.7887 189.522C48.0015 189.599 48.2028 189.679 48.3928 189.763C48.427 189.775 48.4441 189.796 48.4441 189.826C48.4441 189.839 48.4403 189.851 48.4327 189.867L48.0965 190.489C48.0737 190.536 48.0395 190.547 47.9939 190.523C47.6558 190.359 47.2987 190.215 46.9226 190.091C46.5502 189.965 46.176 189.863 45.7999 189.786V192.097C45.7999 192.151 45.7733 192.178 45.7202 192.178H45.0477ZM52.9117 192.021C52.7598 192.021 52.6173 192.018 52.4843 192.01C52.3552 192.002 52.2393 191.995 52.1367 191.987C51.9734 191.972 51.8252 191.943 51.6922 191.901C51.5631 191.855 51.451 191.791 51.356 191.711C51.2649 191.626 51.1946 191.521 51.1452 191.394C51.0958 191.263 51.0711 191.108 51.0711 190.927L51.0825 190.085H49.675C49.6218 190.085 49.5952 190.059 49.5952 190.005V189.441C49.5952 189.387 49.6218 189.36 49.675 189.36H51.0825C51.0863 189.187 51.0882 189.018 51.0882 188.852C51.0882 188.688 51.0882 188.524 51.0882 188.363H49.8459C49.7927 188.363 49.7661 188.336 49.7661 188.283V187.723C49.7661 187.669 49.7927 187.642 49.8459 187.642H53.8805C53.9337 187.642 53.9603 187.669 53.9603 187.723V188.283C53.9603 188.336 53.9337 188.363 53.8805 188.363H51.8974L51.886 189.36H54.1198C54.173 189.36 54.1996 189.387 54.1996 189.441V190.005C54.1996 190.059 54.173 190.085 54.1198 190.085H51.8746V190.76C51.8746 190.917 51.9088 191.033 51.9772 191.106C52.0456 191.179 52.1595 191.225 52.3191 191.244C52.3951 191.252 52.4729 191.26 52.5527 191.267C52.6363 191.271 52.7256 191.273 52.8206 191.273C53.0105 191.273 53.2119 191.265 53.4246 191.25C53.6412 191.231 53.8634 191.204 54.0913 191.169L54.1141 191.164H54.1198C54.1388 191.164 54.154 191.171 54.1654 191.186C54.1768 191.198 54.1806 191.217 54.1768 191.244L54.1483 191.866C54.1483 191.916 54.1236 191.945 54.0742 191.953C53.8691 191.98 53.6677 191.997 53.4702 192.005C53.2764 192.016 53.0903 192.021 52.9117 192.021ZM57.9608 192.183C57.7059 192.183 57.4648 192.17 57.2368 192.143C57.0126 192.116 56.8036 192.072 56.61 192.01C56.3214 191.914 56.0955 191.761 55.932 191.549C55.7684 191.338 55.6871 191.102 55.6871 190.84C55.6871 190.706 55.7098 190.571 55.7552 190.437C55.8011 190.299 55.8729 190.162 55.9721 190.028C56.0707 189.893 56.1958 189.765 56.3478 189.642C56.4997 189.515 56.6823 189.398 56.8949 189.291C56.8189 189.037 56.7699 188.755 56.7467 188.443C56.724 188.132 56.7087 187.794 56.7013 187.429C56.7013 187.372 56.7277 187.343 56.781 187.343H57.4706C57.5239 187.343 57.5503 187.372 57.5503 187.429C57.5466 187.483 57.5445 187.535 57.5445 187.585C57.5445 187.635 57.5445 187.683 57.5445 187.729C57.5445 187.994 57.5524 188.228 57.5677 188.432C57.5867 188.632 57.6131 188.814 57.6474 188.98C57.8864 188.899 58.1412 188.826 58.4109 188.76C58.6842 188.696 58.9596 188.638 59.2371 188.587L59.2598 188.582H59.2656C59.2999 188.582 59.3226 188.603 59.3342 188.645L59.5448 189.262L59.5506 189.297C59.5506 189.331 59.5295 189.352 59.4878 189.36C59.2788 189.39 59.0699 189.427 58.8609 189.469C58.652 189.512 58.451 189.56 58.2568 189.613C58.0631 189.663 57.8811 189.719 57.7101 189.781C57.5392 189.842 57.3851 189.907 57.2484 189.976C56.9862 190.099 56.7984 190.235 56.6844 190.386C56.5741 190.531 56.5187 190.672 56.5187 190.806C56.5187 190.917 56.5514 191.016 56.6158 191.1C56.6802 191.185 56.7678 191.248 56.878 191.29C56.9957 191.34 57.1382 191.375 57.3054 191.394C57.4727 191.413 57.6547 191.423 57.8526 191.423C58.1412 191.423 58.4372 191.405 58.7412 191.371C59.0493 191.337 59.3263 191.298 59.5732 191.256L59.5959 191.25C59.6381 191.25 59.6587 191.276 59.6587 191.33L59.6418 191.964C59.6418 192.01 59.617 192.039 59.5674 192.05C59.2904 192.093 59.0166 192.125 58.747 192.149C58.4773 192.172 58.2151 192.183 57.9608 192.183ZM63.6081 192.212C63.452 192.212 63.3 192.187 63.1523 192.137C63.0077 192.087 62.8784 192.009 62.7644 191.901C62.6658 191.805 62.5898 191.695 62.5365 191.573C62.4874 191.449 62.4626 191.323 62.4626 191.193C62.4626 191.046 62.4927 190.906 62.5539 190.771C62.6183 190.637 62.7133 190.52 62.8388 190.42C62.9565 190.324 63.0837 190.257 63.2203 190.219C63.357 190.176 63.4979 190.155 63.6419 190.155C63.7939 190.155 63.9538 190.176 64.121 190.219L64.1036 189.1L62.5196 189.106C62.4663 189.106 62.4399 189.08 62.4399 189.025V188.461C62.4399 188.408 62.4663 188.38 62.5196 188.38H64.0978L64.0809 187.505C64.0809 187.45 64.1073 187.424 64.1606 187.424H64.7647C64.818 187.424 64.8444 187.45 64.8444 187.505V188.38H65.7108C65.7641 188.38 65.7905 188.408 65.7905 188.461V189.02C65.7905 189.073 65.7641 189.1 65.7108 189.1H64.8444L64.8618 190.518C65.0592 190.629 65.2491 190.752 65.4317 190.887C65.6174 191.021 65.7752 191.146 65.9045 191.261C65.9235 191.281 65.9329 191.301 65.9329 191.324C65.9329 191.34 65.9271 191.357 65.9161 191.377L65.5509 191.89C65.5362 191.913 65.5172 191.924 65.4939 191.924C65.4713 191.924 65.4523 191.914 65.437 191.895C65.3462 191.795 65.2491 191.699 65.1468 191.607C65.0439 191.515 64.9378 191.428 64.8275 191.348C64.7436 191.682 64.5616 191.919 64.2804 192.057C64.178 192.106 64.0693 192.145 63.9553 192.172C63.8414 192.199 63.7258 192.212 63.6081 192.212ZM61.2944 192.143C61.2485 192.143 61.2221 192.12 61.2148 192.074C61.1725 191.828 61.1425 191.555 61.1235 191.256C61.1045 190.956 61.095 190.641 61.095 190.311C61.095 190.072 61.0987 189.832 61.1061 189.591C61.1177 189.345 61.1309 189.105 61.1462 188.87C61.1652 188.632 61.1863 188.4 61.209 188.173C61.2353 187.946 61.2638 187.731 61.2944 187.527C61.2981 187.477 61.3266 187.452 61.3799 187.452L62.0294 187.487C62.0864 187.487 62.1091 187.516 62.098 187.573C62.06 187.762 62.0257 187.965 61.9951 188.184C61.9651 188.4 61.9403 188.622 61.9213 188.852C61.9023 189.083 61.887 189.32 61.8754 189.562C61.8643 189.8 61.8585 190.034 61.8585 190.264C61.8585 190.595 61.8701 190.91 61.8928 191.209C61.9155 191.509 61.9498 191.776 61.9951 192.01L62.0009 192.034V192.039C62.0009 192.077 61.9761 192.097 61.9271 192.097L61.3002 192.143H61.2944ZM63.568 191.567C63.6857 191.567 63.796 191.532 63.8984 191.463C63.9786 191.405 64.0355 191.332 64.0693 191.244C64.1036 191.152 64.1247 191.05 64.1321 190.939C63.9458 190.85 63.777 190.806 63.625 190.806C63.4731 190.806 63.3475 190.85 63.2488 190.939C63.2108 190.977 63.1823 191.02 63.1633 191.065C63.148 191.112 63.1407 191.157 63.1407 191.204C63.1407 191.304 63.1728 191.382 63.2377 191.44C63.2831 191.482 63.3343 191.515 63.3913 191.538C63.4483 191.557 63.5074 191.567 63.568 191.567ZM68.5712 190.962C68.5142 190.962 68.4857 190.935 68.4857 190.881L68.4572 189.579C68.4572 189.522 68.4841 189.492 68.5374 189.492H68.7706C68.9305 189.492 69.0672 189.475 69.1811 189.441C69.2951 189.402 69.388 189.35 69.4603 189.284C69.5362 189.22 69.5916 189.143 69.6254 189.054C69.6597 188.966 69.6771 188.868 69.6771 188.76C69.6771 188.561 69.618 188.403 69.5003 188.288C69.3827 188.173 69.217 188.115 69.0044 188.115C68.826 188.115 68.6778 188.161 68.5601 188.254C68.4424 188.346 68.3475 188.472 68.2752 188.634C68.2562 188.68 68.2219 188.697 68.1723 188.686L67.4942 188.507C67.441 188.496 67.4241 188.463 67.4431 188.409C67.5644 188.04 67.766 187.754 68.0472 187.551C68.3321 187.343 68.672 187.239 69.0672 187.239C69.2877 187.239 69.4887 187.274 69.6713 187.343C69.8576 187.409 70.0148 187.505 70.1441 187.631C70.277 187.754 70.3799 187.904 70.4517 188.081C70.5277 188.257 70.5657 188.456 70.5657 188.674C70.5657 188.862 70.5372 189.043 70.4802 189.216C70.4274 189.385 70.3456 189.538 70.2354 189.677C70.1288 189.815 69.9958 189.932 69.8365 190.028C69.6771 190.12 69.4924 190.184 69.2835 190.219L69.2666 190.881C69.2666 190.935 69.2402 190.962 69.1869 190.962H68.5712ZM68.8793 192.288C68.7384 192.288 68.6208 192.243 68.5258 192.154C68.4308 192.066 68.3833 191.949 68.3833 191.803C68.3833 191.661 68.4308 191.548 68.5258 191.463C68.6208 191.375 68.7384 191.33 68.8793 191.33C69.016 191.33 69.1315 191.375 69.2265 191.463C69.3215 191.548 69.369 191.661 69.369 191.803C69.369 191.949 69.3215 192.066 69.2265 192.154C69.1315 192.243 69.016 192.288 68.8793 192.288Z" fill="black"/>
<path d="M191.835 147.467H105.684C104.285 147.467 103.151 148.613 103.151 150.028V204.689C103.151 206.104 104.285 207.25 105.684 207.25H191.835C193.234 207.25 194.368 206.104 194.368 204.689V150.028C194.368 148.613 193.234 147.467 191.835 147.467Z" fill="white"/>
<path d="M155.866 161.111H140.614V181.521H155.866V161.111Z" fill="white"/>
<path d="M152.209 175.011C152.213 174.957 152.224 174.904 152.24 174.854L154.849 176.377C154.813 176.416 154.773 176.451 154.73 176.482L152.154 178.304C152.133 178.319 152.107 178.328 152.08 178.329C152.055 178.33 152.028 178.324 152.006 178.31C151.982 178.297 151.964 178.278 151.952 178.254C151.94 178.23 151.934 178.204 151.936 178.177L152.209 175.011Z" fill="white"/>
<path d="M156.892 167.164C156.792 167.181 156.699 167.221 156.617 167.279C156.533 167.338 156.465 167.414 156.414 167.502L152.306 174.699C152.278 174.747 152.256 174.799 152.24 174.852L154.848 176.375C154.886 176.334 154.92 176.289 154.947 176.241L159.056 169.044C159.148 168.884 159.173 168.692 159.126 168.512C159.077 168.333 158.961 168.18 158.802 168.087L157.361 167.247C157.22 167.164 157.052 167.134 156.892 167.164Z" fill="#FF8C00"/>
<path d="M152.055 176.797L153.275 177.51L152.154 178.303C152.133 178.318 152.107 178.327 152.08 178.329C152.055 178.33 152.028 178.323 152.006 178.309C151.982 178.297 151.964 178.276 151.952 178.253C151.94 178.229 151.934 178.203 151.936 178.176L152.055 176.797Z" fill="#211715"/>
<path d="M155.442 174.635V181.521L155.866 181.094H141.241C141.044 181.094 140.836 181.075 140.64 181.094C140.632 181.094 140.623 181.094 140.614 181.094L141.037 181.521V161.943C141.037 161.681 141.06 161.408 141.037 161.146C141.036 161.134 141.037 161.123 141.037 161.11L140.614 161.538H155.239C155.436 161.538 155.643 161.557 155.839 161.538C155.848 161.538 155.857 161.538 155.866 161.538L155.442 161.11V168.465C155.442 169.016 156.288 169.016 156.288 168.465V161.112C156.287 160.998 156.241 160.891 156.162 160.81C156.084 160.73 155.977 160.685 155.866 160.683H142.492C141.876 160.683 141.255 160.658 140.64 160.683C140.632 160.683 140.623 160.683 140.614 160.683C140.502 160.685 140.396 160.73 140.317 160.81C140.238 160.891 140.193 160.998 140.192 161.112V179.012C140.192 179.835 140.16 180.664 140.192 181.486C140.192 181.498 140.192 181.51 140.192 181.521C140.193 181.634 140.238 181.742 140.317 181.822C140.396 181.902 140.502 181.948 140.614 181.949H153.988C154.603 181.949 155.224 181.975 155.838 181.949C155.847 181.949 155.857 181.949 155.865 181.949C155.977 181.948 156.083 181.902 156.162 181.822C156.241 181.742 156.287 181.634 156.288 181.521V174.635C156.288 174.084 155.442 174.083 155.442 174.635Z" fill="#211715"/>
<path d="M143.836 166.474H152.368C152.913 166.474 152.914 165.617 152.368 165.617H152.132C151.588 165.617 151.587 166.474 152.132 166.474H152.368C152.913 166.474 152.914 165.617 152.368 165.617H143.836C143.291 165.617 143.291 166.474 143.836 166.474Z" fill="#211715"/>
<path d="M143.836 169.821H152.368C152.913 169.821 152.914 168.965 152.368 168.965H152.132C151.588 168.965 151.587 169.821 152.132 169.821H152.368C152.913 169.821 152.914 168.965 152.368 168.965H143.836C143.291 168.965 143.291 169.821 143.836 169.821Z" fill="#211715"/>
<path d="M143.836 173.164H148.235C148.779 173.164 148.781 172.309 148.235 172.309H147.999C147.454 172.309 147.453 173.164 147.999 173.164H148.235C148.779 173.164 148.781 172.309 148.235 172.309H143.836C143.291 172.309 143.291 173.164 143.836 173.164Z" fill="#211715"/>
<path d="M153.378 177.076L152.391 176.501C152.292 176.444 152.175 176.429 152.065 176.458C151.985 176.48 151.913 176.526 151.858 176.589C151.803 176.653 151.769 176.732 151.758 176.815C151.746 176.898 151.761 176.983 151.797 177.059C151.835 177.134 151.892 177.197 151.964 177.24L152.951 177.816C153.05 177.872 153.167 177.888 153.277 177.859C153.357 177.837 153.429 177.79 153.484 177.727C153.538 177.664 153.574 177.586 153.584 177.501C153.595 177.418 153.581 177.333 153.545 177.258C153.508 177.182 153.451 177.119 153.378 177.076Z" fill="#211715"/>
<path d="M158.728 170.475C158.946 170.093 159.167 169.714 159.382 169.33C159.467 169.192 159.523 169.037 159.547 168.876C159.569 168.715 159.558 168.55 159.515 168.393C159.471 168.236 159.396 168.09 159.294 167.964C159.191 167.837 159.064 167.734 158.92 167.661C158.491 167.412 158.065 167.159 157.635 166.912C157.505 166.829 157.36 166.774 157.209 166.749C157.057 166.724 156.902 166.731 156.753 166.768C156.604 166.804 156.464 166.872 156.34 166.964C156.218 167.057 156.115 167.174 156.037 167.308C155.686 167.886 155.365 168.485 155.029 169.073L152.037 174.315C151.897 174.542 151.81 174.8 151.781 175.066C151.74 175.515 151.704 175.965 151.665 176.416L151.532 177.962C151.492 178.141 151.517 178.33 151.602 178.492C151.998 179.123 152.701 178.437 153.083 178.166L154.586 177.104C154.863 176.908 155.148 176.736 155.325 176.436C155.455 176.218 155.577 175.995 155.703 175.774L158.658 170.6L158.728 170.475C159.001 169.997 158.27 169.565 157.997 170.043L154.654 175.9C154.632 175.938 154.611 175.979 154.586 176.017C154.468 176.2 154.228 176.315 154.051 176.44L152.441 177.579C152.27 177.722 152.085 177.848 151.89 177.956L152.104 177.898H152.118L152.305 178.007L152.308 178.016L152.365 178.232C152.361 178.072 152.371 177.912 152.395 177.754L152.575 175.671C152.593 175.463 152.594 175.244 152.63 175.038C152.696 174.837 152.794 174.648 152.92 174.478L156.608 168.02C156.736 167.795 156.855 167.471 157.164 167.626C157.412 167.749 157.648 167.908 157.887 168.047C158.116 168.181 158.361 168.302 158.58 168.452C158.794 168.6 158.721 168.777 158.613 168.965L157.997 170.043C157.725 170.521 158.456 170.953 158.728 170.475Z" fill="#211715"/>
<path d="M152.214 175.333L154.447 176.637C154.495 176.664 154.549 176.684 154.603 176.691C154.658 176.699 154.714 176.695 154.768 176.681C154.821 176.667 154.872 176.642 154.916 176.608C154.961 176.574 154.998 176.532 155.026 176.483C155.054 176.435 155.073 176.381 155.08 176.325C155.087 176.27 155.084 176.213 155.07 176.159C155.056 176.104 155.031 176.053 154.998 176.008C154.964 175.964 154.922 175.926 154.875 175.898L152.64 174.593C152.593 174.565 152.54 174.547 152.485 174.539C152.43 174.532 152.374 174.535 152.32 174.549C152.266 174.564 152.215 174.589 152.171 174.622C152.127 174.656 152.089 174.699 152.062 174.747C152.034 174.796 152.015 174.849 152.008 174.904C152 174.96 152.004 175.017 152.018 175.072C152.032 175.126 152.056 175.177 152.09 175.222C152.124 175.267 152.165 175.304 152.214 175.333Z" fill="#211715"/>
<path d="M145.077 192.734C145.001 192.734 144.925 192.732 144.849 192.728C144.777 192.728 144.707 192.726 144.638 192.722C144.532 192.719 144.433 192.705 144.342 192.682C144.255 192.658 144.181 192.62 144.119 192.567C144.059 192.517 144.011 192.449 143.977 192.365C143.943 192.277 143.926 192.167 143.926 192.036V189.674C143.926 189.62 143.953 189.593 144.005 189.593H145.624V188.516H143.909C143.856 188.516 143.829 188.489 143.829 188.435V187.888C143.829 187.834 143.856 187.807 143.909 187.807H146.262C146.316 187.807 146.342 187.834 146.342 187.888V190.209C146.342 190.264 146.316 190.29 146.262 190.29H144.638V191.76C144.638 191.849 144.655 191.91 144.689 191.945C144.727 191.979 144.794 192 144.889 192.008C144.939 192.012 144.988 192.014 145.037 192.014C145.086 192.014 145.138 192.014 145.191 192.014C145.244 192.014 145.293 192.014 145.339 192.014C145.388 192.014 145.434 192.012 145.476 192.008C145.559 192 145.628 191.983 145.681 191.956C145.734 191.929 145.778 191.881 145.813 191.812C145.846 191.739 145.871 191.64 145.886 191.518C145.905 191.391 145.919 191.227 145.926 191.028C145.926 190.959 145.957 190.936 146.017 190.959L146.582 191.213C146.62 191.227 146.639 191.26 146.639 191.311C146.623 191.606 146.594 191.846 146.553 192.031C146.515 192.211 146.456 192.351 146.376 192.451C146.3 192.551 146.202 192.618 146.08 192.653C145.958 192.691 145.808 192.714 145.629 192.722C145.542 192.726 145.452 192.728 145.357 192.728C145.262 192.732 145.168 192.734 145.077 192.734ZM141.596 192.786C141.542 192.786 141.515 192.759 141.515 192.705V191.149C141.515 191.095 141.542 191.068 141.596 191.068H143.492C143.546 191.068 143.573 191.095 143.573 191.149V192.705C143.573 192.759 143.546 192.786 143.492 192.786H141.596ZM142.94 192.209V191.616H142.165V192.209H142.94ZM141.653 190.803C141.599 190.803 141.572 190.776 141.572 190.722V190.337C141.572 190.283 141.599 190.256 141.653 190.256H143.453C143.506 190.256 143.533 190.283 143.533 190.337V190.722C143.533 190.776 143.506 190.803 143.453 190.803H141.653ZM141.653 189.997C141.599 189.997 141.572 189.969 141.572 189.916V189.524C141.572 189.47 141.599 189.443 141.653 189.443H143.453C143.506 189.443 143.533 189.47 143.533 189.524V189.916C143.533 189.969 143.506 189.997 143.453 189.997H141.653ZM141.447 189.179C141.393 189.179 141.368 189.152 141.368 189.098V188.654C141.368 188.6 141.393 188.574 141.447 188.574H143.619C143.671 188.574 143.698 188.6 143.698 188.654V189.098C143.698 189.152 143.671 189.179 143.619 189.179H141.447ZM141.653 188.308C141.599 188.308 141.572 188.281 141.572 188.228V187.812C141.572 187.759 141.599 187.731 141.653 187.731H143.453C143.506 187.731 143.533 187.759 143.533 187.812V188.228C143.533 188.281 143.506 188.308 143.453 188.308H141.653ZM147.185 192.815C147.144 192.815 147.119 192.79 147.111 192.739L147.049 192.233V192.22C147.049 192.178 147.073 192.153 147.123 192.146C147.248 192.138 147.375 192.129 147.505 192.118C147.633 192.105 147.765 192.09 147.898 192.071V190.636H147.299C147.247 190.636 147.22 190.61 147.22 190.555V190.106C147.22 190.052 147.247 190.025 147.299 190.025H147.898V189.559H147.516C147.462 189.559 147.437 189.531 147.437 189.478V189.288C147.413 189.307 147.391 189.326 147.367 189.345C147.345 189.364 147.323 189.384 147.299 189.403C147.285 189.415 147.269 189.42 147.254 189.42C147.231 189.42 147.21 189.403 147.191 189.368L146.997 188.833C146.993 188.825 146.992 188.814 146.992 188.798C146.992 188.767 147.005 188.744 147.031 188.729C147.202 188.606 147.364 188.455 147.516 188.273C147.671 188.089 147.799 187.908 147.898 187.731C147.921 187.693 147.953 187.674 147.994 187.674H148.473C148.515 187.674 148.548 187.693 148.57 187.731C148.669 187.889 148.785 188.039 148.918 188.182C149.051 188.32 149.197 188.445 149.357 188.556C149.395 188.583 149.406 188.619 149.39 188.666L149.168 189.208C149.157 189.238 149.138 189.253 149.111 189.253C149.096 189.253 149.08 189.248 149.061 189.236L148.981 189.172V189.478C148.981 189.531 148.954 189.559 148.901 189.559H148.536V190.025H149.049C149.102 190.025 149.129 190.052 149.129 190.106V190.555C149.129 190.61 149.102 190.636 149.049 190.636H148.536V191.967C148.639 191.948 148.738 191.929 148.833 191.91C148.931 191.887 149.024 191.864 149.111 191.841C149.119 191.837 149.129 191.835 149.14 191.835C149.182 191.835 149.203 191.86 149.203 191.91V191.916C149.336 191.789 149.452 191.656 149.55 191.518C149.653 191.376 149.746 191.23 149.83 191.08C149.67 190.876 149.488 190.707 149.282 190.573C149.256 190.558 149.243 190.536 149.243 190.51C149.243 190.49 149.251 190.473 149.265 190.458L149.561 190.169C149.58 190.15 149.602 190.14 149.624 190.14C149.643 190.14 149.659 190.145 149.67 190.152C149.784 190.222 149.894 190.305 150.001 190.406C150.111 190.502 150.204 190.6 150.28 190.699C150.295 190.722 150.302 190.74 150.302 190.751C150.302 190.77 150.293 190.79 150.274 190.809L150.006 191.115L150.245 191.293C150.268 191.309 150.28 191.33 150.28 191.356C150.28 191.376 150.276 191.391 150.268 191.403C150.169 191.591 150.06 191.783 149.938 191.979C149.816 192.175 149.681 192.345 149.533 192.492C149.514 192.511 149.498 192.521 149.482 192.521C149.463 192.521 149.444 192.511 149.425 192.492L149.191 192.273V192.382C149.191 192.428 149.168 192.457 149.123 192.469C148.826 192.546 148.511 192.613 148.177 192.671C147.847 192.732 147.519 192.78 147.197 192.815H147.185ZM147.413 191.933C147.38 191.933 147.358 191.91 147.351 191.864C147.335 191.717 147.313 191.571 147.282 191.426C147.256 191.275 147.221 191.134 147.18 190.999C147.176 190.991 147.174 190.98 147.174 190.965C147.174 190.927 147.193 190.905 147.231 190.901L147.556 190.821C147.563 190.821 147.567 190.821 147.567 190.821C147.571 190.817 147.576 190.815 147.584 190.815C147.619 190.815 147.641 190.834 147.652 190.872C147.695 191.007 147.731 191.153 147.761 191.311C147.791 191.464 147.814 191.611 147.829 191.754V191.771C147.829 191.81 147.809 191.835 147.766 191.846L147.442 191.927C147.434 191.927 147.429 191.929 147.424 191.933C147.424 191.933 147.421 191.933 147.413 191.933ZM148.639 191.685C148.586 191.666 148.57 191.631 148.593 191.581C148.639 191.47 148.677 191.351 148.707 191.224C148.738 191.093 148.762 190.97 148.781 190.855C148.792 190.802 148.825 190.78 148.878 190.792L149.163 190.861C149.213 190.872 149.232 190.907 149.22 190.965C149.197 191.099 149.167 191.232 149.129 191.362C149.094 191.489 149.056 191.608 149.015 191.72C148.996 191.769 148.962 191.784 148.912 191.765L148.639 191.685ZM148.776 188.983C148.669 188.874 148.568 188.762 148.473 188.642C148.378 188.519 148.301 188.408 148.24 188.308C148.175 188.42 148.101 188.533 148.018 188.648C147.934 188.763 147.842 188.874 147.744 188.983H148.776ZM150.109 192.878C150.067 192.878 150.036 192.855 150.017 192.809L149.83 192.307C149.826 192.3 149.824 192.288 149.824 192.273C149.824 192.238 149.851 192.22 149.903 192.22C150.082 192.228 150.206 192.211 150.274 192.169C150.343 192.127 150.377 192.042 150.377 191.916V190.014H149.26C149.206 190.014 149.18 189.987 149.18 189.934V189.512C149.18 189.459 149.206 189.432 149.26 189.432H151.141L151.146 189.15H149.574C149.52 189.15 149.493 189.123 149.493 189.069V188.729C149.493 188.675 149.52 188.648 149.574 188.648H151.157V188.354H149.442C149.389 188.354 149.362 188.327 149.362 188.273V187.865C149.362 187.811 149.389 187.784 149.442 187.784H151.79C151.843 187.784 151.869 187.811 151.869 187.865L151.841 189.432H152.138C152.191 189.432 152.217 189.459 152.217 189.512V189.934C152.217 189.987 152.191 190.014 152.138 190.014H150.992V190.238C151.027 190.338 151.065 190.439 151.106 190.538C151.152 190.634 151.201 190.727 151.255 190.815C151.342 190.727 151.421 190.626 151.494 190.515C151.565 190.404 151.628 190.294 151.682 190.187C151.704 190.14 151.739 190.129 151.784 190.152L152.183 190.337C152.233 190.36 152.246 190.394 152.223 190.44C152.147 190.586 152.052 190.736 151.938 190.89C151.825 191.039 151.706 191.174 151.584 191.293C151.703 191.439 151.824 191.573 151.95 191.696C152.075 191.82 152.198 191.929 152.32 192.025C152.343 192.041 152.354 192.06 152.354 192.082C152.354 192.102 152.347 192.119 152.331 192.134L151.972 192.601C151.957 192.624 151.936 192.636 151.91 192.636C151.891 192.636 151.874 192.628 151.858 192.613C151.706 192.471 151.559 192.3 151.413 192.1C151.274 191.897 151.142 191.669 151.02 191.419L151.038 192.152C151.041 192.29 151.027 192.406 150.992 192.498C150.962 192.59 150.91 192.665 150.838 192.722C150.766 192.78 150.669 192.82 150.548 192.843C150.43 192.87 150.283 192.882 150.109 192.878ZM157.317 192.186C157.295 192.186 157.276 192.177 157.26 192.158C157.048 191.923 156.849 191.693 156.662 191.466C156.48 191.235 156.301 191.01 156.127 190.792C155.956 190.573 155.785 190.36 155.614 190.152C155.443 189.945 155.264 189.745 155.078 189.553C154.987 189.469 154.907 189.426 154.838 189.426C154.762 189.426 154.69 189.47 154.622 189.559C154.481 189.755 154.322 189.993 154.143 190.273C153.968 190.55 153.773 190.834 153.556 191.126C153.541 191.153 153.52 191.167 153.493 191.167C153.474 191.167 153.458 191.159 153.442 191.144L152.867 190.74C152.841 190.725 152.827 190.706 152.827 190.682C152.827 190.663 152.834 190.646 152.85 190.631C152.96 190.492 153.069 190.348 153.175 190.198C153.284 190.044 153.392 189.895 153.493 189.749C153.601 189.599 153.701 189.457 153.796 189.323C153.891 189.189 153.978 189.073 154.058 188.977C154.172 188.831 154.295 188.725 154.428 188.66C154.561 188.594 154.696 188.562 154.833 188.562C154.966 188.562 155.095 188.591 155.22 188.648C155.345 188.706 155.464 188.788 155.573 188.896C155.771 189.096 155.961 189.304 156.143 189.518C156.33 189.729 156.516 189.947 156.702 190.169C156.892 190.392 157.088 190.617 157.289 190.843C157.495 191.066 157.715 191.289 157.95 191.512C157.969 191.531 157.979 191.551 157.979 191.57C157.979 191.589 157.969 191.608 157.95 191.627L157.374 192.163C157.355 192.178 157.336 192.186 157.317 192.186Z" fill="black"/>
</g>
<path d="M122.367 151.572H175.7V204.906H122.367V151.572Z" fill="white"/>
<path d="M163.783 191.899C157.64 191.374 149.994 189.756 144.59 186.147C142.327 184.636 137.244 179.032 131.608 173.583C129.885 171.917 128.957 169.979 129.628 167.683C129.821 167.032 130.177 166.441 130.663 165.965C131.148 165.49 131.747 165.145 132.403 164.963C133.435 164.661 134.498 164.481 135.573 164.428L135.785 164.41C131.199 158.403 124.252 149.29 119.568 143.23C117.875 141.039 116.552 136.501 119.594 134.169C122.547 131.907 125.551 133.622 127.743 136.043C131.225 139.889 138.836 149.12 142.432 153.046C142.24 150.846 143.409 148.717 146.169 147.744C148.326 146.984 150.68 147.643 151.663 149.547C151.05 147.573 152.152 145.132 154.513 144.038C156.874 142.945 159.768 143.2 161 145.221C160.774 143.316 162.508 141.819 164.209 141.214C166.04 140.564 168.793 141.137 170.803 143.523C174.711 148.164 177.878 153.054 180.627 157.28C184.642 163.453 187.371 168.11 188.826 170.734L163.783 191.899Z" fill="white"/>
<path d="M140.739 169.537C138.505 166.629 136.295 163.701 134.075 160.781C130.776 156.44 127.472 152.102 124.165 147.766C123.388 146.752 122.611 145.738 121.834 144.724C121.123 143.877 120.467 142.987 119.87 142.057C118.823 140.256 118.199 137.714 119.387 135.851C119.753 135.297 120.253 134.842 120.84 134.531C121.427 134.219 122.083 134.059 122.747 134.067C124.161 134.116 125.439 135.006 126.434 135.94C127.218 136.717 127.963 137.532 128.666 138.384C129.438 139.27 130.203 140.162 130.963 141.057C134.279 144.947 137.534 148.893 140.924 152.719C141.233 153.067 141.544 153.414 141.857 153.759C142.605 154.58 143.821 153.36 143.075 152.542C139.632 148.764 136.393 144.798 133.085 140.904C131.586 139.139 130.091 137.37 128.543 135.648C126.398 133.262 123.189 131.297 120.022 133.032C118.729 133.722 117.755 134.889 117.307 136.284C116.956 137.538 116.942 138.864 117.267 140.125C117.536 141.304 118.02 142.422 118.694 143.425C119.367 144.412 120.149 145.336 120.875 146.284C124.286 150.734 127.685 155.193 131.073 159.66C133.638 163.034 136.204 166.407 138.77 169.779C138.93 169.989 139.091 170.198 139.251 170.407C139.372 170.599 139.561 170.737 139.779 170.795C139.998 170.852 140.231 170.824 140.43 170.716C140.626 170.6 140.768 170.411 140.826 170.19C140.884 169.97 140.853 169.736 140.739 169.538L140.739 169.537Z" fill="#211715"/>
<path d="M163.905 190.917C160.507 190.638 157.144 190.039 153.861 189.128C150.692 188.231 147.489 187.011 144.796 185.092C144.744 185.06 144.695 185.022 144.65 184.981C144.555 184.905 144.46 184.83 144.367 184.752C144.157 184.578 143.95 184.401 143.746 184.22C143.258 183.79 142.783 183.341 142.312 182.89C141.114 181.742 139.946 180.563 138.778 179.385C137.385 177.98 135.993 176.57 134.587 175.176C133.84 174.435 133.087 173.698 132.329 172.965C131.711 172.401 131.185 171.746 130.77 171.022C130.021 169.637 130.01 167.698 131.168 166.518C132.253 165.412 134.036 165.275 135.568 165.152C135.796 165.146 136.014 165.054 136.175 164.894C136.337 164.733 136.43 164.518 136.435 164.291C136.434 164.063 136.342 163.845 136.179 163.684C136.017 163.522 135.797 163.431 135.568 163.43C133.976 163.558 132.128 163.717 130.763 164.631C130.026 165.139 129.432 165.826 129.038 166.627C128.645 167.428 128.464 168.316 128.513 169.205C128.586 171.06 129.574 172.671 130.866 173.956C132.433 175.512 134.022 177.046 135.578 178.614C137.966 181.017 140.29 183.539 142.871 185.745C145.384 187.892 148.573 189.246 151.693 190.269C155.657 191.525 159.755 192.32 163.904 192.639C164.134 192.637 164.353 192.546 164.516 192.385C164.678 192.224 164.77 192.006 164.772 191.778C164.768 191.551 164.674 191.335 164.513 191.174C164.351 191.014 164.133 190.921 163.905 190.917Z" fill="#211715"/>
<path d="M143.202 153.047C143.055 151.134 144.078 149.58 145.842 148.766C147.582 147.963 149.84 148.169 150.818 149.987C151.28 150.847 152.67 150.259 152.396 149.326C151.843 147.438 153.142 145.546 154.908 144.768C156.576 144.033 159.058 143.944 160.149 145.669C160.57 146.335 161.845 146.134 161.759 145.235C161.635 143.942 162.548 142.985 163.62 142.391C164.515 141.872 165.576 141.712 166.586 141.943C167.915 142.256 169.107 142.988 169.983 144.031C171.147 145.355 172.221 146.771 173.271 148.186C175.257 150.862 177.107 153.634 178.928 156.424C180.722 159.175 182.495 161.939 184.207 164.742C185.496 166.854 186.758 168.981 187.96 171.142C188.499 172.108 189.99 171.243 189.451 170.274C186.666 165.265 183.591 160.419 180.459 155.619C178.504 152.621 176.515 149.643 174.361 146.781C173.789 146.022 173.207 145.271 172.614 144.529C172.05 143.778 171.443 143.061 170.795 142.381C169.729 141.301 168.365 140.56 166.875 140.251C165.378 139.956 163.824 140.236 162.526 141.035C161.066 141.925 159.86 143.448 160.031 145.234L161.64 144.8C160.038 142.269 156.685 142.13 154.157 143.23C151.674 144.31 149.94 147.083 150.73 149.781L152.309 149.119C150.925 146.544 147.738 146.09 145.229 147.167C142.855 148.185 141.274 150.434 141.475 153.046C141.48 153.272 141.573 153.488 141.734 153.648C141.895 153.808 142.111 153.9 142.339 153.905C142.567 153.904 142.786 153.813 142.947 153.651C143.109 153.491 143.201 153.273 143.202 153.046V153.047Z" fill="#211715"/>
</g>
<defs>
<clipPath id="clip0_1583_5700">
<rect width="200" height="237.867" fill="white" transform="translate(0.5 0.638672)"/>
</clipPath>
</defs>
</svg>
