<svg width="24" height="24" viewBox="0 0 24 24" fill="none" xmlns="http://www.w3.org/2000/svg">
<path d="M23.6352 9.89179C23.6352 4.73614 18.4138 0.541016 11.9965 0.541016C5.57927 0.541016 0.35791 4.73547 0.35791 9.89179C0.35791 14.5142 4.49859 18.3853 10.0915 19.117C10.4706 19.198 10.9868 19.3647 11.117 19.6854C11.2343 19.9763 11.194 20.4333 11.1545 20.7269C11.1545 20.7269 11.0181 21.5403 10.9881 21.7131C10.9377 22.004 10.7543 22.8525 11.9965 22.3341C13.2388 21.8157 18.6995 18.4265 21.1411 15.6441C22.8279 13.8129 23.6359 11.9546 23.6359 9.89111L23.6352 9.89179Z" fill="white"/>
<path d="M19.7633 12.8683H16.4933C16.4343 12.8683 16.3778 12.8451 16.3361 12.8038C16.2944 12.7625 16.271 12.7066 16.271 12.6482V7.61946C16.271 7.49796 16.3705 7.39941 16.4933 7.39941H19.7633C19.8853 7.39941 19.9855 7.49864 19.9855 7.61946V8.43689C19.9855 8.55839 19.886 8.65694 19.7633 8.65694H17.5412V9.50541H19.7633C19.8853 9.50541 19.9855 9.60464 19.9855 9.72546V10.5429C19.9855 10.6644 19.886 10.7629 19.7633 10.7629H17.5412V11.6114H19.7633C19.8853 11.6114 19.9855 11.7106 19.9855 11.8315V12.6489C19.9855 12.7704 19.886 12.8689 19.7633 12.8689V12.8683ZM7.66781 12.8683C7.79054 12.8683 7.89008 12.7697 7.89008 12.6482V11.8308C7.89008 11.71 7.78986 11.6107 7.66781 11.6107H5.44576V7.61946C5.44576 7.49864 5.34554 7.39941 5.22349 7.39941H4.39781C4.33886 7.39941 4.28232 7.4226 4.24064 7.46386C4.19896 7.50513 4.17554 7.5611 4.17554 7.61946V12.6482C4.17554 12.7697 4.27508 12.8683 4.39781 12.8683H7.66781Z" fill="#06C755"/>
<path d="M9.63614 7.40039H8.81114C8.68838 7.40039 8.58887 7.49891 8.58887 7.62044V12.6492C8.58887 12.7707 8.68838 12.8692 8.81114 12.8692H9.63614C9.7589 12.8692 9.85841 12.7707 9.85841 12.6492V7.62044C9.85841 7.49891 9.7589 7.40039 9.63614 7.40039Z" fill="#06C755"/>
<path d="M15.2557 7.40039H14.43C14.3711 7.40039 14.3145 7.42357 14.2728 7.46484C14.2311 7.50611 14.2077 7.56208 14.2077 7.62044V10.6073L11.8834 7.50029C11.878 7.49219 11.8718 7.48477 11.8657 7.47734C11.8657 7.47734 11.865 7.47599 11.8643 7.47599C11.8602 7.47127 11.8555 7.46654 11.8507 7.46249L11.8466 7.45844L11.8343 7.44832C11.8321 7.44695 11.8301 7.44537 11.8282 7.44359C11.8241 7.44089 11.8207 7.43819 11.8166 7.43549C11.8145 7.43414 11.8118 7.43279 11.8098 7.43144C11.8057 7.42942 11.8016 7.42672 11.7975 7.42469C11.7955 7.42334 11.7927 7.42267 11.7907 7.42132C11.7866 7.41929 11.7818 7.41727 11.7777 7.41592C11.775 7.41524 11.773 7.41389 11.7702 7.41322L11.7566 7.40917L11.7484 7.40714C11.7443 7.40579 11.7395 7.40512 11.7355 7.40444C11.732 7.40444 11.7293 7.40377 11.7259 7.40309C11.7218 7.40309 11.7177 7.40174 11.7136 7.40174H10.8736C10.8147 7.40174 10.7582 7.42492 10.7165 7.46619C10.6748 7.50746 10.6514 7.56343 10.6514 7.62179V12.6505C10.6514 12.772 10.7509 12.8706 10.8736 12.8706H11.6993C11.822 12.8706 11.9216 12.772 11.9216 12.6505V9.66502L14.2486 12.7761C14.265 12.7986 14.2853 12.818 14.3086 12.8335C14.3134 12.8362 14.3182 12.8395 14.3223 12.8416C14.3243 12.8429 14.3264 12.8443 14.3284 12.8449C14.3318 12.847 14.3352 12.8483 14.3393 12.8503C14.3427 12.8517 14.3468 12.8537 14.3502 12.8551C14.3523 12.8557 14.355 12.8571 14.357 12.8578C14.3618 12.8598 14.3673 12.8611 14.372 12.8625C14.3734 12.8625 14.3741 12.8625 14.3755 12.8632C14.3939 12.8679 14.4136 12.8706 14.4334 12.8706H15.2543C15.377 12.8706 15.4766 12.772 15.4766 12.6505V7.62179C15.4766 7.50029 15.377 7.40174 15.2543 7.40174L15.2557 7.40039Z" fill="#06C755"/>
</svg>
