<svg width="100" height="121" viewBox="0 0 100 121" fill="none" xmlns="http://www.w3.org/2000/svg">
<path d="M50.0205 12.623C21.8957 12.623 2.45651 34.5717 2.45651 60.2558C2.45651 88.9921 22.3143 108.782 50.0224 108.782C78.7978 108.782 97.5882 88.8081 97.5882 60.2558C97.5882 34.3972 78.0462 12.623 50.0205 12.623Z" fill="#FFDA71"/>
<path d="M50.0203 10.7051C39.2609 10.7406 28.551 13.9451 19.9254 20.5209C11.7869 26.7249 5.78696 35.3943 2.77794 45.2235C-3.20965 64.7805 2.73893 88.0203 19.0626 100.666C27.007 106.82 36.798 110.032 46.7488 110.605C57.0258 111.198 67.6521 109.172 76.5992 103.915C84.7197 99.1427 91.1677 91.7703 94.9358 83.0999C99.1226 73.4672 100.434 62.5106 98.8486 52.1282C97.3208 42.1235 92.6746 32.6403 85.6605 25.3857C78.3772 17.8532 68.6471 12.93 58.3415 11.3579C55.5827 10.9371 52.8096 10.7137 50.0203 10.7051C47.5716 10.6974 47.5678 14.5317 50.0203 14.5394C60.0415 14.572 69.8363 17.5465 77.9111 23.597C85.3551 29.175 90.8575 37.2683 93.5878 46.1754C99.016 63.8785 94.1938 85.3114 79.6348 97.1901C72.5066 103.006 63.4206 106.053 54.3441 106.71C44.7605 107.404 34.9562 105.77 26.5047 101.026C18.7372 96.6657 12.6165 89.924 8.84259 81.8231C4.77666 73.0943 3.40962 62.7071 4.86323 53.1893C6.29401 43.8211 10.4712 34.9802 17.0372 28.1627C23.822 21.1172 32.7615 16.6483 42.3603 15.1107C44.8918 14.7052 47.4594 14.5471 50.0203 14.5394C52.4681 14.5317 52.4728 10.6974 50.0203 10.7051Z" fill="#211715"/>
<path d="M50.0196 23.0068C41.9658 23.0423 33.9385 25.4119 27.4629 30.3141C21.3345 34.9536 16.8015 41.4106 14.4813 48.7754C9.8493 63.481 14.2587 81.1332 26.5383 90.7085C38.5705 100.092 56.8472 100.984 69.964 93.3273C83.3852 85.4919 89.1264 69.1788 86.8194 54.1597C84.4069 38.4524 71.8942 25.8596 56.2907 23.5015C54.2111 23.1871 52.1239 23.0145 50.0206 23.0059C47.5719 22.9953 47.5681 26.8297 50.0206 26.8402C57.3866 26.8718 64.5681 29.0459 70.5053 33.4956C75.9525 37.5792 79.9813 43.5195 81.9772 50.0378C85.9613 63.0534 82.4196 78.7655 71.723 87.5001C61.1967 96.0947 44.5543 96.8597 32.8531 90.3327C20.6173 83.5066 14.8209 68.8902 16.8919 55.2113C17.9326 48.3354 21.0045 41.8372 25.821 36.8353C30.8097 31.6542 37.3624 28.3931 44.4173 27.2543C46.2686 26.9552 48.1484 26.8479 50.0206 26.8402C52.4683 26.8297 52.474 22.9963 50.0206 23.0068H50.0196Z" fill="#211715"/>
<path d="M61.2279 63.8166H52.8839V60.5527H61.6408C65.2491 60.5527 65.2558 54.9009 61.6408 54.9009H54.8598C57.5415 51.681 60.2223 48.4611 62.9032 45.2413C63.845 44.1102 64.0856 42.3387 62.9032 41.245C61.8643 40.2835 59.9446 40.0362 58.9371 41.245C55.9842 44.7908 53.0313 48.3365 50.0794 51.8823C47.1265 48.3365 44.1746 44.7908 41.2217 41.245C40.2751 40.1081 38.2193 40.1877 37.2557 41.245C36.154 42.4537 36.2454 44.0287 37.2557 45.2413C39.9374 48.4611 42.6182 51.681 45.299 54.9009H38.5181C34.9097 54.9009 34.903 60.5527 38.5181 60.5527H47.2749V63.8166H38.9309C35.3216 63.8166 35.3159 69.4684 38.9309 69.4684H47.2749V77.4601C47.2749 78.9871 48.564 80.286 50.0794 80.286C51.5949 80.286 52.8839 78.9929 52.8839 77.4601V69.4684H61.2279C64.8362 69.4684 64.8429 63.8166 61.2279 63.8166Z" fill="#211715"/>
</svg>
